<svg xmlns="http://www.w3.org/2000/svg" xmlns:xlink="http://www.w3.org/1999/xlink" width="416.612" height="765.555" viewBox="0 0 416.612 765.555"><defs><style>.a{fill:#94d75b;}.b{fill:#71be63;}.c{fill:#43ab5f;}.d{fill:#3c9b61;}.e{fill:#388253;}.f{fill:#c0f492;}.g{fill:#b0eb81;}.h{fill:#acef6a;}.i{filter:url(#aw);}.j{filter:url(#au);}.k{filter:url(#as);}.l{filter:url(#aq);}.m{filter:url(#ao);}.n{filter:url(#am);}.o{filter:url(#ak);}.p{filter:url(#ai);}.q{filter:url(#ag);}.r{filter:url(#ae);}.s{filter:url(#ac);}.t{filter:url(#aa);}.u{filter:url(#y);}.v{filter:url(#w);}.w{filter:url(#u);}.x{filter:url(#s);}.y{filter:url(#q);}.z{filter:url(#o);}.aa{filter:url(#m);}.ab{filter:url(#k);}.ac{filter:url(#i);}.ad{filter:url(#g);}.ae{filter:url(#e);}.af{filter:url(#c);}.ag{filter:url(#a);}</style><filter id="a" x="139.331" y="674.833" width="118.362" height="90.658" filterUnits="userSpaceOnUse"><feOffset dx="7" dy="7" input="SourceAlpha"/><feGaussianBlur stdDeviation="2.5" result="b"/><feFlood flood-opacity="0.2"/><feComposite operator="in" in2="b"/><feComposite in="SourceGraphic"/></filter><filter id="c" x="163.683" y="577.666" width="173.02" height="187.89" filterUnits="userSpaceOnUse"><feOffset dx="7" dy="7" input="SourceAlpha"/><feGaussianBlur stdDeviation="2.5" result="d"/><feFlood flood-opacity="0.2"/><feComposite operator="in" in2="d"/><feComposite in="SourceGraphic"/></filter><filter id="e" x="115.042" y="435.178" width="142.535" height="93.398" filterUnits="userSpaceOnUse"><feOffset dx="7" dy="7" input="SourceAlpha"/><feGaussianBlur stdDeviation="2.5" result="f"/><feFlood flood-opacity="0.2"/><feComposite operator="in" in2="f"/><feComposite in="SourceGraphic"/></filter><filter id="g" x="0" y="301.012" width="82.264" height="53.22" filterUnits="userSpaceOnUse"><feOffset dx="7" dy="7" input="SourceAlpha"/><feGaussianBlur stdDeviation="2.5" result="h"/><feFlood flood-opacity="0.2"/><feComposite operator="in" in2="h"/><feComposite in="SourceGraphic"/></filter><filter id="i" x="41.593" y="320.122" width="56.906" height="60.805" filterUnits="userSpaceOnUse"><feOffset dx="7" dy="7" input="SourceAlpha"/><feGaussianBlur stdDeviation="2.5" result="j"/><feFlood flood-opacity="0.2"/><feComposite operator="in" in2="j"/><feComposite in="SourceGraphic"/></filter><filter id="k" x="103.111" y="321.71" width="197.72" height="141.854" filterUnits="userSpaceOnUse"><feOffset dx="7" dy="7" input="SourceAlpha"/><feGaussianBlur stdDeviation="2.5" result="l"/><feFlood flood-opacity="0.2"/><feComposite operator="in" in2="l"/><feComposite in="SourceGraphic"/></filter><filter id="m" x="122.125" y="529.805" width="105.614" height="77.77" filterUnits="userSpaceOnUse"><feOffset dx="7" dy="7" input="SourceAlpha"/><feGaussianBlur stdDeviation="2.5" result="n"/><feFlood flood-opacity="0.2"/><feComposite operator="in" in2="n"/><feComposite in="SourceGraphic"/></filter><filter id="o" x="94.226" y="222.09" width="133.897" height="118.384" filterUnits="userSpaceOnUse"><feOffset dx="7" dy="7" input="SourceAlpha"/><feGaussianBlur stdDeviation="2.5" result="p"/><feFlood flood-opacity="0.2"/><feComposite operator="in" in2="p"/><feComposite in="SourceGraphic"/></filter><filter id="q" x="215.004" y="486.954" width="138.563" height="218.201" filterUnits="userSpaceOnUse"><feOffset dx="7" dy="7" input="SourceAlpha"/><feGaussianBlur stdDeviation="2.5" result="r"/><feFlood flood-opacity="0.2"/><feComposite operator="in" in2="r"/><feComposite in="SourceGraphic"/></filter><filter id="s" x="110" y="187.102" width="171.266" height="127.269" filterUnits="userSpaceOnUse"><feOffset dx="7" dy="7" input="SourceAlpha"/><feGaussianBlur stdDeviation="2.5" result="t"/><feFlood flood-opacity="0.2"/><feComposite operator="in" in2="t"/><feComposite in="SourceGraphic"/></filter><filter id="u" x="240.821" y="0" width="106.679" height="176.61" filterUnits="userSpaceOnUse"><feOffset dx="7" dy="7" input="SourceAlpha"/><feGaussianBlur stdDeviation="2.5" result="v"/><feFlood flood-opacity="0.2"/><feComposite operator="in" in2="v"/><feComposite in="SourceGraphic"/></filter><filter id="w" x="201.607" y="199.139" width="165.357" height="103.485" filterUnits="userSpaceOnUse"><feOffset dx="7" dy="7" input="SourceAlpha"/><feGaussianBlur stdDeviation="2.5" result="x"/><feFlood flood-opacity="0.2"/><feComposite operator="in" in2="x"/><feComposite in="SourceGraphic"/></filter><filter id="y" x="167.431" y="61.572" width="161.778" height="175.589" filterUnits="userSpaceOnUse"><feOffset dx="7" dy="7" input="SourceAlpha"/><feGaussianBlur stdDeviation="2.5" result="z"/><feFlood flood-opacity="0.2"/><feComposite operator="in" in2="z"/><feComposite in="SourceGraphic"/></filter><filter id="aa" x="116.559" y="19.681" width="47.623" height="60.085" filterUnits="userSpaceOnUse"><feOffset dx="7" dy="7" input="SourceAlpha"/><feGaussianBlur stdDeviation="2.5" result="ab"/><feFlood flood-opacity="0.2"/><feComposite operator="in" in2="ab"/><feComposite in="SourceGraphic"/></filter><filter id="ac" x="62.616" y="508.428" width="85.253" height="57.753" filterUnits="userSpaceOnUse"><feOffset dx="7" dy="7" input="SourceAlpha"/><feGaussianBlur stdDeviation="2.5" result="ad"/><feFlood flood-opacity="0.2"/><feComposite operator="in" in2="ad"/><feComposite in="SourceGraphic"/></filter><filter id="ae" x="30.385" y="83.178" width="117.485" height="81.876" filterUnits="userSpaceOnUse"><feOffset dx="7" dy="7" input="SourceAlpha"/><feGaussianBlur stdDeviation="2.5" result="af"/><feFlood flood-opacity="0.2"/><feComposite operator="in" in2="af"/><feComposite in="SourceGraphic"/></filter><filter id="ag" x="180.418" y="387.655" width="178.758" height="121.082" filterUnits="userSpaceOnUse"><feOffset dx="7" dy="7" input="SourceAlpha"/><feGaussianBlur stdDeviation="2.5" result="ah"/><feFlood flood-opacity="0.2"/><feComposite operator="in" in2="ah"/><feComposite in="SourceGraphic"/></filter><filter id="ai" x="201.81" y="476.893" width="98.487" height="134.3" filterUnits="userSpaceOnUse"><feOffset dx="7" dy="7" input="SourceAlpha"/><feGaussianBlur stdDeviation="2.5" result="aj"/><feFlood flood-opacity="0.2"/><feComposite operator="in" in2="aj"/><feComposite in="SourceGraphic"/></filter><filter id="ak" x="48.332" y="351.795" width="120.222" height="78.181" filterUnits="userSpaceOnUse"><feOffset dx="7" dy="7" input="SourceAlpha"/><feGaussianBlur stdDeviation="2.5" result="al"/><feFlood flood-opacity="0.2"/><feComposite operator="in" in2="al"/><feComposite in="SourceGraphic"/></filter><filter id="am" x="181.087" y="0.855" width="64.315" height="97.739" filterUnits="userSpaceOnUse"><feOffset dx="7" dy="7" input="SourceAlpha"/><feGaussianBlur stdDeviation="2.5" result="an"/><feFlood flood-opacity="0.2"/><feComposite operator="in" in2="an"/><feComposite in="SourceGraphic"/></filter><filter id="ao" x="260.182" y="60.332" width="82.478" height="121.37" filterUnits="userSpaceOnUse"><feOffset dx="7" dy="7" input="SourceAlpha"/><feGaussianBlur stdDeviation="2.5" result="ap"/><feFlood flood-opacity="0.2"/><feComposite operator="in" in2="ap"/><feComposite in="SourceGraphic"/></filter><filter id="aq" x="84.756" y="64.94" width="61.053" height="59.39" filterUnits="userSpaceOnUse"><feOffset dx="7" dy="7" input="SourceAlpha"/><feGaussianBlur stdDeviation="2.5" result="ar"/><feFlood flood-opacity="0.2"/><feComposite operator="in" in2="ar"/><feComposite in="SourceGraphic"/></filter><filter id="as" x="92.079" y="614.11" width="174.26" height="105.346" filterUnits="userSpaceOnUse"><feOffset dx="7" dy="7" input="SourceAlpha"/><feGaussianBlur stdDeviation="2.5" result="at"/><feFlood flood-opacity="0.2"/><feComposite operator="in" in2="at"/><feComposite in="SourceGraphic"/></filter><filter id="au" x="61.745" y="695.368" width="86.76" height="62.861" filterUnits="userSpaceOnUse"><feOffset dx="7" dy="7" input="SourceAlpha"/><feGaussianBlur stdDeviation="2.5" result="av"/><feFlood flood-opacity="0.2"/><feComposite operator="in" in2="av"/><feComposite in="SourceGraphic"/></filter><filter id="aw" x="171.709" y="262.65" width="244.903" height="145.454" filterUnits="userSpaceOnUse"><feOffset dx="7" dy="7" input="SourceAlpha"/><feGaussianBlur stdDeviation="2.5" result="ax"/><feFlood flood-opacity="0.2"/><feComposite operator="in" in2="ax"/><feComposite in="SourceGraphic"/></filter></defs><g transform="translate(402.112 0.5) rotate(90)"><g transform="translate(674.833 158.919)"><g class="ag" transform="matrix(0, -1, 1, 0, -675.33, 243.19)"><path class="a" d="M73.177,103.362C90.42-16.457,12.126.872,12.126.872S-40.4,61.466,73.177,103.362Z" transform="translate(243.19 675.33) rotate(90)"/></g><path class="b" d="M61.051,103.362,0,.872S78.294-16.457,61.051,103.362Z" transform="translate(12.126)"/></g><g transform="translate(577.666 79.909)"><g class="af" transform="matrix(0, -1, 1, 0, -578.17, 322.2)"><path class="a" d="M0,158.02C224.051,149.164,166.173,12.374,166.173,12.374S38.151-62.936,0,158.02Z" transform="translate(322.2 578.17) rotate(90)"/></g><path class="b" d="M0,145.646,166.173,0S224.051,136.79,0,145.646Z" transform="translate(0 12.374)"/></g><g transform="translate(435.178 159.035)"><g class="ae" transform="matrix(0, -1, 1, 0, -435.68, 243.08)"><path class="b" d="M14.818,127.535C128.2,52.8,55.369,0,55.369,0S-34.583,1.037,14.818,127.535Z" transform="translate(243.08 435.68) rotate(90)"/></g><path class="c" d="M0,127.535,40.552,0S113.384,52.8,0,127.535Z" transform="translate(14.818)"/></g><g transform="translate(301.012 334.348)"><g class="ad" transform="matrix(0, -1, 1, 0, -301.51, 67.76)"><path class="b" d="M17.272,67.264C62.578,16.12,20.286,0,20.286,0S-23.277,12.273,17.272,67.264Z" transform="translate(67.76 301.51) rotate(90)"/></g><path class="c" d="M0,67.264,3.014,0S45.305,16.12,0,67.264Z" transform="translate(17.272)"/></g><g transform="translate(320.122 318.113)"><g class="ac" transform="matrix(0, -1, 1, 0, -320.62, 84)"><path class="d" d="M45.805,41.906C35.733-16.666,1.787,3.271,1.787,3.271S-13.58,39.519,45.805,41.906Z" transform="translate(84 320.62) rotate(90)"/></g><path class="e" d="M44.018,41.906,0,3.271S33.946-16.666,44.018,41.906Z" transform="translate(1.787 0)"/></g><g transform="translate(0 49.648)"><g transform="translate(321.71 66.134)"><g class="ab" transform="matrix(0, -1, 1, 0, -322.21, 286.33)"><path class="f" d="M7.813,182.72C198.8,99.644,102.653.7,102.653.7S-33.527-21.41,7.813,182.72Z" transform="translate(286.33 322.21) rotate(90)"/></g><path class="g" d="M0,182.019,94.84,0S190.987,98.943,0,182.019Z" transform="translate(7.813 0.701)"/></g><g transform="translate(529.805 139.225)"><g class="aa" transform="matrix(0, -1, 1, 0, -530.3, 213.24)"><path class="f" d="M58.812,90.614C79.548-10.448,12.063.333,12.063.333S-35.686,49.221,58.812,90.614Z" transform="translate(213.24 530.3) rotate(90)"/></g><path class="g" d="M46.748,90.614,0,.333S67.484-10.448,46.748,90.614Z" transform="translate(12.063)"/></g><g transform="translate(222.09 138.841)"><g class="z" transform="matrix(0, -1, 1, 0, -222.59, 213.62)"><path class="g" d="M0,118.9C147.584,87.865,93.84,3.653,93.84,3.653S.487-31.911,0,118.9Z" transform="translate(213.62 222.59) rotate(90)"/></g><path class="a" d="M0,115.245,93.84,0S147.584,84.212,0,115.245Z" transform="translate(0 3.653)"/></g><g transform="translate(486.954 13.398)"><g class="y" transform="matrix(0, -1, 1, 0, -487.45, 339.07)"><path class="g" d="M203.2,97.909C81.159-79.084,0,37.943,0,37.943S4.616,180.279,203.2,97.909Z" transform="translate(339.07 487.45) rotate(90)"/></g><path class="a" d="M203.2,97.909,0,37.944S81.159-79.084,203.2,97.909Z" transform="translate(0 0)"/></g><g transform="translate(187.102 85.699)"><g class="x" transform="matrix(0, -1, 1, 0, -187.6, 266.77)"><path class="c" d="M4.674,156.266C173.535,90.263,93.144,1.04,93.144,1.04S-24.591-22.66,4.674,156.266Z" transform="translate(266.77 187.6) rotate(90)"/></g><path class="d" d="M0,155.226,88.47,0S168.862,89.223,0,155.226Z" transform="translate(4.674 1.04)"/></g><g transform="translate(0 19.465)"><g class="w" transform="matrix(0, -1, 1, 0, -0.5, 333)"><path class="c" d="M0,45.839c127.5,103.14,161.61,0,161.61,0S127.5-57.3,0,45.839Z" transform="translate(333 0.5) rotate(90)"/></g><path class="d" d="M0,0H161.61S127.5,103.14,0,0Z" transform="translate(0 45.839)"/></g><g transform="translate(199.139 0)"><g class="v" transform="matrix(0, -1, 1, 0, -199.64, 352.46)"><path class="a" d="M63.677,150.357C134.334,11.268,31.608,0,31.608,0S-57.58,52.2,63.677,150.357Z" transform="translate(352.46 199.64) rotate(90)"/></g><path class="b" d="M32.069,150.357,0,0S102.726,11.268,32.069,150.357Z" transform="translate(31.608)"/></g><g transform="translate(61.572 37.755)"><g class="u" transform="matrix(0, -1, 1, 0, -62.07, 314.71)"><path class="a" d="M0,146.778C208.112,138.551,154.351,11.494,154.351,11.494S35.437-58.459,0,146.778Z" transform="translate(314.71 62.07) rotate(90)"/></g><path class="b" d="M0,135.283,154.351,0S208.112,127.057,0,135.283Z" transform="translate(0 11.494)"/></g><g transform="translate(19.681 202.783)"><g class="t" transform="matrix(0, -1, 1, 0, -20.18, 149.68)"><path class="a" d="M0,31.38C51.872,39.469,44.756,5.43,44.756,5.43S18.749-17.657,0,31.38Z" transform="translate(149.68 20.18) rotate(90)"/></g><path class="b" d="M0,25.95,44.756,0S51.872,34.039,0,25.95Z" transform="translate(0 5.43)"/></g><g transform="translate(508.428 219.095)"><g class="s" transform="matrix(0, -1, 1, 0, -508.93, 133.37)"><path class="a" d="M33.94,70.253C62.32,1.516,13.084,0,13.084,0S-27.348,28.136,33.94,70.253Z" transform="translate(133.37 508.93) rotate(90)"/></g><path class="b" d="M20.856,70.253,0,0S49.236,1.516,20.856,70.253Z" transform="translate(13.084)"/></g><g transform="translate(83.178 219.095)"><g class="r" transform="matrix(0, -1, 1, 0, -83.68, 133.37)"><path class="a" d="M7.533,102.485C107.285,49.5,51.121.065,51.121.065S-23.442-6.137,7.533,102.485Z" transform="translate(133.37 83.68) rotate(90)"/></g><path class="b" d="M0,102.42,43.588,0S99.752,49.432,0,102.42Z" transform="translate(7.533 0.065)"/></g><g transform="translate(387.655 7.788)"><g class="q" transform="matrix(0, -1, 1, 0, -388.15, 344.68)"><path class="h" d="M93.329,163.758C144.389-8.578,25.642.072,25.642.072S-64.535,77.815,93.329,163.758Z" transform="translate(344.68 388.15) rotate(90)"/></g><path class="a" d="M67.687,163.758,0,.072S118.747-8.578,67.687,163.758Z" transform="translate(25.642)"/></g><g transform="translate(476.893 66.668)"><g class="p" transform="matrix(0, -1, 1, 0, -477.39, 285.8)"><path class="b" d="M119.3,78.771C65.968-46.936.529,15.51.529,15.51S-14.777,104.661,119.3,78.771Z" transform="translate(285.8 477.39) rotate(90)"/></g><path class="c" d="M118.771,78.771,0,15.51S65.439-46.936,118.771,78.771Z" transform="translate(0.529 0)"/></g><g transform="translate(351.795 198.411)"><g class="o" transform="matrix(0, -1, 1, 0, -352.29, 154.05)"><path class="d" d="M48.513,105.222C93.555,4.322,20.489,0,20.489,0S-40.748,40.093,48.513,105.222Z" transform="translate(154.05 352.29) rotate(90)"/></g><path class="e" d="M28.024,105.222,0,0S73.066,4.322,28.024,105.222Z" transform="translate(20.489)"/></g><g transform="translate(0.855 121.562)"><g class="n" transform="matrix(0, -1, 1, 0, -1.35, 230.9)"><path class="d" d="M0,37.068c78.373,36.61,82.739-20.524,82.739-20.524S52.177-31.929,0,37.068Z" transform="translate(230.9 1.35) rotate(90)"/></g><path class="e" d="M0,20.524,82.739,0S78.373,57.134,0,20.524Z" transform="translate(0 16.544)"/></g><g transform="translate(60.332 24.305)"><g class="m" transform="matrix(0, -1, 1, 0, -60.83, 328.16)"><path class="d" d="M0,57.735c109.535,36.2,106.361-40.147,106.361-40.147S58.29-41.821,0,57.735Z" transform="translate(328.16 60.83) rotate(90)"/></g><path class="e" d="M0,40.147,106.361,0S109.535,76.351,0,40.147Z" transform="translate(0 17.588)"/></g><g transform="translate(64.94 221.156)"><g class="l" transform="matrix(0, -1, 1, 0, -65.44, 131.31)"><path class="c" d="M0,46.053C60.705,37.982,41.509,2.248,41.509,2.248S4.789-15,0,46.053Z" transform="translate(131.31 65.44) rotate(90)"/></g><path class="d" d="M0,43.805,41.509,0S60.705,35.735,0,43.805Z" transform="translate(0 2.248)"/></g></g><g transform="translate(614.11 150.274)"><g class="k" transform="matrix(0, -1, 1, 0, -614.61, 251.84)"><path class="a" d="M45.173,159.26C146.812,33.613,45.173,0,45.173,0S-56.466,33.613,45.173,159.26Z" transform="translate(251.84 614.61) rotate(90)"/></g><path class="b" d="M0,159.26V0S101.64,33.613,0,159.26Z" transform="translate(45.172)"/></g><g transform="translate(695.368 268.107)"><g class="j" transform="matrix(0, -1, 1, 0, -695.87, 134.01)"><path class="f" d="M43.453,71.76C63.15-5.83,10.454.1,10.454.1S-28.311,36.285,43.453,71.76Z" transform="translate(134.01 695.87) rotate(90)"/></g><path class="g" d="M33,71.76,0,.1S52.7-5.83,33,71.76Z" transform="translate(10.454)"/></g><g transform="translate(262.65)"><g class="i" transform="matrix(0, -1, 1, 0, -263.15, 402.11)"><path class="c" d="M67.8,229.9C211.192,45.833,63.582,0,63.582,0S-82.249,51.215,67.8,229.9Z" transform="translate(402.11 263.15) rotate(90)"/></g><path class="d" d="M4.218,229.9,0,0S147.61,45.833,4.218,229.9Z" transform="translate(63.582)"/></g></g></svg>