<svg xmlns="http://www.w3.org/2000/svg" width="77" height="75.717" viewBox="0 0 77 75.717"><g transform="translate(-16 -16)"><path d="M110.317,26.89l-3.85-6.417a1.282,1.282,0,0,0-1.1-.623h-7.7V17.283A1.283,1.283,0,0,0,96.384,16h-23.1A1.283,1.283,0,0,0,72,17.283h0V35.25a1.283,1.283,0,0,0,1.283,1.283h3.851a3.85,3.85,0,0,0,7.7,0H98.95a3.85,3.85,0,0,0,7.7,0h2.567a1.283,1.283,0,0,0,1.283-1.283h0v-7.7A1.279,1.279,0,0,0,110.317,26.89ZM80.983,37.817a1.283,1.283,0,1,1,1.283-1.283A1.283,1.283,0,0,1,80.983,37.817ZM95.1,33.967H83.832a3.8,3.8,0,0,0-5.7,0H74.567v-15.4H95.1Zm7.7-11.55h1.84l1.54,2.567H102.8Zm0,15.4a1.283,1.283,0,1,1,1.283-1.283A1.283,1.283,0,0,1,102.8,37.817Zm5.133-3.85h-2.285a3.8,3.8,0,0,0-5.7,0H97.667V22.417h2.567v3.85a1.283,1.283,0,0,0,1.283,1.283h6.2l.213.355Z" transform="translate(-47.017)"/><path d="M280.626,281l-7.258-6.289v-9.424A1.283,1.283,0,0,0,272.085,264h-5.134a1.283,1.283,0,0,0-1.283,1.283h0v2.751l-4.292-3.721a1.286,1.286,0,0,0-1.682,0L240.444,281a1.284,1.284,0,0,0,.841,2.253H247.7v15.4a1.283,1.283,0,0,0,1.283,1.283h23.1a1.283,1.283,0,0,0,1.283-1.283h0v-15.4h6.417a1.284,1.284,0,0,0,.841-2.253ZM263.1,297.367h-5.133V290.95a2.567,2.567,0,1,1,5.133,0Zm8.983-16.683a1.283,1.283,0,0,0-1.283,1.283h0v15.4h-5.133V290.95a5.133,5.133,0,0,0-10.267,0v6.417h-5.133v-15.4a1.283,1.283,0,0,0-1.283-1.283h-4.26l15.81-13.7,5.576,4.833a1.284,1.284,0,0,0,2.124-.97v-4.278H270.8v8.726a1.285,1.285,0,0,0,.442.97l5.1,4.42Z" transform="translate(-188.068 -208.217)"/><rect width="7" height="3" transform="translate(16 19.25)"/><rect width="7" height="2" transform="translate(16 25.25)"/><rect width="7" height="2" transform="translate(16 30.25)"/><path d="M82.733,96H66.05v2.567H82.733a7.7,7.7,0,1,1,0,15.4H35.25a19.25,19.25,0,1,0,0,38.5H57.067V149.9H35.25a16.683,16.683,0,1,1,0-33.367H82.733a10.267,10.267,0,1,0,0-20.533Z" transform="translate(0 -67.167)"/></g></svg>