<svg xmlns="http://www.w3.org/2000/svg" xmlns:xlink="http://www.w3.org/1999/xlink" width="416.612" height="765.555" viewBox="0 0 416.612 765.555"><defs><style>.a{fill:#94d75b;}.b{fill:#71be63;}.c{fill:#43ab5f;}.d{fill:#3c9b61;}.e{fill:#388253;}.f{fill:#c0f492;}.g{fill:#b0eb81;}.h{fill:#acef6a;}.i{filter:url(#aw);}.j{filter:url(#au);}.k{filter:url(#as);}.l{filter:url(#aq);}.m{filter:url(#ao);}.n{filter:url(#am);}.o{filter:url(#ak);}.p{filter:url(#ai);}.q{filter:url(#ag);}.r{filter:url(#ae);}.s{filter:url(#ac);}.t{filter:url(#aa);}.u{filter:url(#y);}.v{filter:url(#w);}.w{filter:url(#u);}.x{filter:url(#s);}.y{filter:url(#q);}.z{filter:url(#o);}.aa{filter:url(#m);}.ab{filter:url(#k);}.ac{filter:url(#i);}.ad{filter:url(#g);}.ae{filter:url(#e);}.af{filter:url(#c);}.ag{filter:url(#a);}</style><filter id="a" x="158.919" y="674.833" width="118.362" height="90.658" filterUnits="userSpaceOnUse"><feOffset dx="7" dy="7" input="SourceAlpha"/><feGaussianBlur stdDeviation="2.5" result="b"/><feFlood flood-opacity="0.2"/><feComposite operator="in" in2="b"/><feComposite in="SourceGraphic"/></filter><filter id="c" x="79.909" y="577.666" width="173.02" height="187.89" filterUnits="userSpaceOnUse"><feOffset dx="7" dy="7" input="SourceAlpha"/><feGaussianBlur stdDeviation="2.5" result="d"/><feFlood flood-opacity="0.2"/><feComposite operator="in" in2="d"/><feComposite in="SourceGraphic"/></filter><filter id="e" x="159.035" y="435.178" width="142.535" height="93.398" filterUnits="userSpaceOnUse"><feOffset dx="7" dy="7" input="SourceAlpha"/><feGaussianBlur stdDeviation="2.5" result="f"/><feFlood flood-opacity="0.2"/><feComposite operator="in" in2="f"/><feComposite in="SourceGraphic"/></filter><filter id="g" x="334.348" y="301.012" width="82.264" height="53.22" filterUnits="userSpaceOnUse"><feOffset dx="7" dy="7" input="SourceAlpha"/><feGaussianBlur stdDeviation="2.5" result="h"/><feFlood flood-opacity="0.2"/><feComposite operator="in" in2="h"/><feComposite in="SourceGraphic"/></filter><filter id="i" x="318.113" y="320.122" width="56.906" height="60.805" filterUnits="userSpaceOnUse"><feOffset dx="7" dy="7" input="SourceAlpha"/><feGaussianBlur stdDeviation="2.5" result="j"/><feFlood flood-opacity="0.2"/><feComposite operator="in" in2="j"/><feComposite in="SourceGraphic"/></filter><filter id="k" x="115.782" y="321.71" width="197.72" height="141.854" filterUnits="userSpaceOnUse"><feOffset dx="7" dy="7" input="SourceAlpha"/><feGaussianBlur stdDeviation="2.5" result="l"/><feFlood flood-opacity="0.2"/><feComposite operator="in" in2="l"/><feComposite in="SourceGraphic"/></filter><filter id="m" x="188.873" y="529.805" width="105.614" height="77.77" filterUnits="userSpaceOnUse"><feOffset dx="7" dy="7" input="SourceAlpha"/><feGaussianBlur stdDeviation="2.5" result="n"/><feFlood flood-opacity="0.2"/><feComposite operator="in" in2="n"/><feComposite in="SourceGraphic"/></filter><filter id="o" x="181.612" y="218.09" width="133.897" height="118.384" filterUnits="userSpaceOnUse"><feOffset dx="7" dy="7" input="SourceAlpha"/><feGaussianBlur stdDeviation="2.5" result="p"/><feFlood flood-opacity="0.2"/><feComposite operator="in" in2="p"/><feComposite in="SourceGraphic"/></filter><filter id="q" x="63.046" y="486.954" width="138.563" height="218.201" filterUnits="userSpaceOnUse"><feOffset dx="7" dy="7" input="SourceAlpha"/><feGaussianBlur stdDeviation="2.5" result="r"/><feFlood flood-opacity="0.2"/><feComposite operator="in" in2="r"/><feComposite in="SourceGraphic"/></filter><filter id="s" x="124.869" y="187.102" width="171.266" height="127.269" filterUnits="userSpaceOnUse"><feOffset dx="7" dy="7" input="SourceAlpha"/><feGaussianBlur stdDeviation="2.5" result="t"/><feFlood flood-opacity="0.2"/><feComposite operator="in" in2="t"/><feComposite in="SourceGraphic"/></filter><filter id="u" x="69.113" y="0" width="106.679" height="176.61" filterUnits="userSpaceOnUse"><feOffset dx="7" dy="7" input="SourceAlpha"/><feGaussianBlur stdDeviation="2.5" result="v"/><feFlood flood-opacity="0.2"/><feComposite operator="in" in2="v"/><feComposite in="SourceGraphic"/></filter><filter id="w" x="49.648" y="199.139" width="165.357" height="103.485" filterUnits="userSpaceOnUse"><feOffset dx="7" dy="7" input="SourceAlpha"/><feGaussianBlur stdDeviation="2.5" result="x"/><feFlood flood-opacity="0.2"/><feComposite operator="in" in2="x"/><feComposite in="SourceGraphic"/></filter><filter id="y" x="87.403" y="61.572" width="161.778" height="175.589" filterUnits="userSpaceOnUse"><feOffset dx="7" dy="7" input="SourceAlpha"/><feGaussianBlur stdDeviation="2.5" result="z"/><feFlood flood-opacity="0.2"/><feComposite operator="in" in2="z"/><feComposite in="SourceGraphic"/></filter><filter id="aa" x="252.431" y="19.681" width="47.623" height="60.085" filterUnits="userSpaceOnUse"><feOffset dx="7" dy="7" input="SourceAlpha"/><feGaussianBlur stdDeviation="2.5" result="ab"/><feFlood flood-opacity="0.2"/><feComposite operator="in" in2="ab"/><feComposite in="SourceGraphic"/></filter><filter id="ac" x="268.743" y="508.428" width="85.253" height="57.753" filterUnits="userSpaceOnUse"><feOffset dx="7" dy="7" input="SourceAlpha"/><feGaussianBlur stdDeviation="2.5" result="ad"/><feFlood flood-opacity="0.2"/><feComposite operator="in" in2="ad"/><feComposite in="SourceGraphic"/></filter><filter id="ae" x="268.742" y="83.178" width="117.485" height="81.876" filterUnits="userSpaceOnUse"><feOffset dx="7" dy="7" input="SourceAlpha"/><feGaussianBlur stdDeviation="2.5" result="af"/><feFlood flood-opacity="0.2"/><feComposite operator="in" in2="af"/><feComposite in="SourceGraphic"/></filter><filter id="ag" x="57.436" y="387.655" width="178.758" height="121.082" filterUnits="userSpaceOnUse"><feOffset dx="7" dy="7" input="SourceAlpha"/><feGaussianBlur stdDeviation="2.5" result="ah"/><feFlood flood-opacity="0.2"/><feComposite operator="in" in2="ah"/><feComposite in="SourceGraphic"/></filter><filter id="ai" x="116.315" y="476.893" width="98.487" height="134.3" filterUnits="userSpaceOnUse"><feOffset dx="7" dy="7" input="SourceAlpha"/><feGaussianBlur stdDeviation="2.5" result="aj"/><feFlood flood-opacity="0.2"/><feComposite operator="in" in2="aj"/><feComposite in="SourceGraphic"/></filter><filter id="ak" x="248.059" y="351.795" width="120.222" height="78.181" filterUnits="userSpaceOnUse"><feOffset dx="7" dy="7" input="SourceAlpha"/><feGaussianBlur stdDeviation="2.5" result="al"/><feFlood flood-opacity="0.2"/><feComposite operator="in" in2="al"/><feComposite in="SourceGraphic"/></filter><filter id="am" x="171.21" y="0.855" width="64.315" height="97.739" filterUnits="userSpaceOnUse"><feOffset dx="7" dy="7" input="SourceAlpha"/><feGaussianBlur stdDeviation="2.5" result="an"/><feFlood flood-opacity="0.2"/><feComposite operator="in" in2="an"/><feComposite in="SourceGraphic"/></filter><filter id="ao" x="73.952" y="60.332" width="82.478" height="121.37" filterUnits="userSpaceOnUse"><feOffset dx="7" dy="7" input="SourceAlpha"/><feGaussianBlur stdDeviation="2.5" result="ap"/><feFlood flood-opacity="0.2"/><feComposite operator="in" in2="ap"/><feComposite in="SourceGraphic"/></filter><filter id="aq" x="270.803" y="64.94" width="61.053" height="59.39" filterUnits="userSpaceOnUse"><feOffset dx="7" dy="7" input="SourceAlpha"/><feGaussianBlur stdDeviation="2.5" result="ar"/><feFlood flood-opacity="0.2"/><feComposite operator="in" in2="ar"/><feComposite in="SourceGraphic"/></filter><filter id="as" x="150.274" y="614.11" width="174.26" height="105.346" filterUnits="userSpaceOnUse"><feOffset dx="7" dy="7" input="SourceAlpha"/><feGaussianBlur stdDeviation="2.5" result="at"/><feFlood flood-opacity="0.2"/><feComposite operator="in" in2="at"/><feComposite in="SourceGraphic"/></filter><filter id="au" x="268.107" y="695.368" width="86.76" height="62.861" filterUnits="userSpaceOnUse"><feOffset dx="7" dy="7" input="SourceAlpha"/><feGaussianBlur stdDeviation="2.5" result="av"/><feFlood flood-opacity="0.2"/><feComposite operator="in" in2="av"/><feComposite in="SourceGraphic"/></filter><filter id="aw" x="0" y="262.65" width="244.903" height="145.454" filterUnits="userSpaceOnUse"><feOffset dx="7" dy="7" input="SourceAlpha"/><feGaussianBlur stdDeviation="2.5" result="ax"/><feFlood flood-opacity="0.2"/><feComposite operator="in" in2="ax"/><feComposite in="SourceGraphic"/></filter></defs><g transform="translate(402.112 0.5) rotate(90)"><g transform="translate(674.833 139.331)"><g class="ag" transform="matrix(0, -1, 1, 0, -675.33, 262.78)"><path class="a" d="M73.177,0C90.42,119.819,12.126,102.489,12.126,102.489S-40.4,41.9,73.177,0Z" transform="translate(262.78 675.33) rotate(90)"/></g><path class="b" d="M61.051,0,0,102.489S78.294,119.819,61.051,0Z" transform="translate(12.126)"/></g><g transform="translate(577.666 163.683)"><g class="af" transform="matrix(0, -1, 1, 0, -578.17, 238.43)"><path class="a" d="M0,0C224.051,8.856,166.173,145.646,166.173,145.646S38.151,220.956,0,0Z" transform="translate(238.43 578.17) rotate(90)"/></g><path class="b" d="M0,0,166.173,145.646S224.051,8.856,0,0Z"/></g><g transform="translate(435.178 115.042)"><g class="ae" transform="matrix(0, -1, 1, 0, -435.68, 287.07)"><path class="b" d="M14.817,0C128.2,74.739,55.369,127.535,55.369,127.535S-34.583,126.5,14.817,0Z" transform="translate(287.07 435.68) rotate(90)"/></g><path class="c" d="M0,0,40.552,127.535S113.384,74.739,0,0Z" transform="translate(14.818)"/></g><g transform="translate(301.012)"><g class="ad" transform="matrix(0, -1, 1, 0, -301.51, 402.11)"><path class="b" d="M17.272,0c45.305,51.144,3.014,67.264,3.014,67.264S-23.277,54.991,17.272,0Z" transform="translate(402.11 301.51) rotate(90)"/></g><path class="c" d="M0,0,3.014,67.264S45.305,51.144,0,0Z" transform="translate(17.272)"/></g><g transform="translate(320.122 41.593)"><g class="ac" transform="matrix(0, -1, 1, 0, -320.62, 360.52)"><path class="d" d="M45.805,0C35.733,58.572,1.787,38.636,1.787,38.636S-13.58,2.387,45.805,0Z" transform="translate(360.52 320.62) rotate(90)"/></g><path class="e" d="M44.018,0,0,38.636S33.946,58.572,44.018,0Z" transform="translate(1.787)"/></g><g transform="translate(0 30.385)"><g transform="translate(321.711 72.726)"><g class="ab" transform="matrix(0, -1, 1, 0, -322.21, 299)"><path class="f" d="M7.813,0c190.987,83.076,94.84,182.019,94.84,182.019S-33.527,204.13,7.813,0Z" transform="translate(299 322.21) rotate(90)"/></g><path class="g" d="M0,0,94.84,182.019S190.987,83.076,0,0Z" transform="translate(7.813)"/></g><g transform="translate(529.805 91.74)"><g class="aa" transform="matrix(0, -1, 1, 0, -530.3, 279.99)"><path class="f" d="M58.812,0C79.548,101.062,12.063,90.281,12.063,90.281S-35.686,41.393,58.812,0Z" transform="translate(279.99 530.3) rotate(90)"/></g><path class="g" d="M46.748,0,0,90.281S67.484,101.062,46.748,0Z" transform="translate(12.063)"/></g><g transform="translate(218.09 70.718)"><g class="z" transform="matrix(0, -1, 1, 0, -218.59, 301.01)"><path class="g" d="M0,0C147.584,31.032,93.84,115.245,93.84,115.245S.487,150.809,0,0Z" transform="translate(301.01 218.59) rotate(90)"/></g><path class="a" d="M0,0,93.84,115.245S147.584,31.032,0,0Z"/></g><g transform="translate(486.954 184.619)"><g class="y" transform="matrix(0, -1, 1, 0, -487.45, 187.11)"><path class="g" d="M203.2,25.654C81.159,202.646,0,85.619,0,85.619S4.616-56.717,203.2,25.654Z" transform="translate(187.11 487.45) rotate(90)"/></g><path class="a" d="M203.2,0,0,59.965S81.159,176.992,203.2,0Z" transform="translate(0 25.654)"/></g><g transform="translate(187.102 90.093)"><g class="x" transform="matrix(0, -1, 1, 0, -187.6, 281.63)"><path class="c" d="M4.674,0c168.862,66,88.47,155.226,88.47,155.226S-24.591,178.926,4.674,0Z" transform="translate(281.63 187.6) rotate(90)"/></g><path class="d" d="M0,0,88.47,155.226S168.862,66,0,0Z" transform="translate(4.674)"/></g><g transform="translate(0 210.436)"><g class="w" transform="matrix(0, -1, 1, 0, -0.5, 161.29)"><path class="c" d="M0,45.84c127.5-103.14,161.61,0,161.61,0S127.5,148.978,0,45.84Z" transform="translate(161.29 0.5) rotate(90)"/></g><path class="d" d="M0,45.84H161.61S127.5-57.3,0,45.84Z"/></g><g transform="translate(199.139 171.222)"><g class="v" transform="matrix(0, -1, 1, 0, -199.64, 200.5)"><path class="a" d="M63.677,0c70.657,139.089-32.069,150.357-32.069,150.357S-57.58,98.156,63.677,0Z" transform="translate(200.5 199.64) rotate(90)"/></g><path class="b" d="M32.069,0,0,150.357S102.726,139.089,32.069,0Z" transform="translate(31.608)"/></g><g transform="translate(61.572 137.046)"><g class="u" transform="matrix(0, -1, 1, 0, -62.07, 234.68)"><path class="a" d="M0,0C208.112,8.227,154.351,135.284,154.351,135.284S35.437,205.237,0,0Z" transform="translate(234.68 62.07) rotate(90)"/></g><path class="b" d="M0,0,154.351,135.284S208.112,8.227,0,0Z"/></g><g transform="translate(19.681 86.174)"><g class="t" transform="matrix(0, -1, 1, 0, -20.18, 285.55)"><path class="a" d="M0,1.243c51.872-8.09,44.756,25.95,44.756,25.95S18.749,50.28,0,1.243Z" transform="translate(285.55 20.18) rotate(90)"/></g><path class="b" d="M0,1.243l44.756,25.95S51.872-6.846,0,1.243Z"/></g><g transform="translate(508.428 32.231)"><g class="s" transform="matrix(0, -1, 1, 0, -508.93, 339.5)"><path class="a" d="M33.94,0C62.32,68.737,13.084,70.253,13.084,70.253S-27.348,42.117,33.94,0Z" transform="translate(339.5 508.93) rotate(90)"/></g><path class="b" d="M20.856,0,0,70.253S49.236,68.737,20.856,0Z" transform="translate(13.084)"/></g><g transform="translate(83.178)"><g class="r" transform="matrix(0, -1, 1, 0, -83.68, 371.73)"><path class="a" d="M7.533,0c99.752,52.987,43.588,102.42,43.588,102.42S-23.442,108.621,7.533,0Z" transform="translate(371.73 83.68) rotate(90)"/></g><path class="b" d="M0,0,43.588,102.42S99.752,52.987,0,0Z" transform="translate(7.533)"/></g><g transform="translate(387.655 150.033)"><g class="q" transform="matrix(0, -1, 1, 0, -388.15, 221.69)"><path class="h" d="M93.329,0c51.06,172.336-67.687,163.686-67.687,163.686S-64.535,85.943,93.329,0Z" transform="translate(221.69 388.15) rotate(90)"/></g><path class="a" d="M67.687,0,0,163.686S118.747,172.336,67.687,0Z" transform="translate(25.642)"/></g><g transform="translate(493.893 148.425)"><g class="p" transform="matrix(0, -1, 1, 0, -494.39, 223.3)"><path class="b" d="M119.3,4.716C65.968,130.423.529,67.977.529,67.977S-14.777-21.174,119.3,4.716Z" transform="translate(200.3 477.39) rotate(90)"/></g><path class="c" d="M118.771,0,0,63.261S65.439,125.707,118.771,0Z" transform="translate(-16.471 27.716)"/></g><g transform="translate(351.795 17.947)"><g class="o" transform="matrix(0, -1, 1, 0, -352.29, 353.78)"><path class="d" d="M48.513,0C93.555,100.9,20.489,105.222,20.489,105.222S-40.748,65.129,48.513,0Z" transform="translate(353.78 352.29) rotate(90)"/></g><path class="e" d="M28.024,0,0,105.222S73.066,100.9,28.024,0Z" transform="translate(20.489)"/></g><g transform="translate(0.855 150.702)"><g class="n" transform="matrix(0, -1, 1, 0, -1.35, 221.03)"><path class="d" d="M0,12.247c78.373-36.61,82.739,20.524,82.739,20.524S52.177,81.244,0,12.247Z" transform="translate(221.03 1.35) rotate(90)"/></g><path class="e" d="M0,12.247,82.739,32.771S78.373-24.363,0,12.247Z"/></g><g transform="translate(60.332 229.797)"><g class="m" transform="matrix(0, -1, 1, 0, -60.83, 141.93)"><path class="d" d="M0,9.743C109.535-26.461,106.361,49.89,106.361,49.89S58.29,109.3,0,9.743Z" transform="translate(141.93 60.83) rotate(90)"/></g><path class="e" d="M0,9.743,106.361,49.89S109.535-26.461,0,9.743Z" transform="translate(0 0)"/></g><g transform="translate(64.94 54.371)"><g class="l" transform="matrix(0, -1, 1, 0, -65.44, 317.36)"><path class="c" d="M0,0C60.705,8.071,41.509,43.805,41.509,43.805S4.789,61.051,0,0Z" transform="translate(317.36 65.44) rotate(90)"/></g><path class="d" d="M0,0,41.509,43.805S60.705,8.071,0,0Z"/></g></g><g transform="translate(614.11 92.079)"><g class="k" transform="matrix(0, -1, 1, 0, -614.61, 310.03)"><path class="a" d="M45.173,0c101.64,125.647,0,159.26,0,159.26S-56.466,125.647,45.173,0Z" transform="translate(310.03 614.61) rotate(90)"/></g><path class="b" d="M0,0V159.26S101.64,125.647,0,0Z" transform="translate(45.173)"/></g><g transform="translate(695.368 61.745)"><g class="j" transform="matrix(0, -1, 1, 0, -695.87, 340.37)"><path class="f" d="M43.453,0c19.7,77.59-33,71.655-33,71.655S-28.311,35.474,43.453,0Z" transform="translate(340.37 695.87) rotate(90)"/></g><path class="g" d="M33,0,0,71.655S52.7,77.59,33,0Z" transform="translate(10.454)"/></g><g transform="translate(262.65 171.709)"><g class="i" transform="matrix(0, -1, 1, 0, -263.15, 230.4)"><path class="c" d="M67.8,0c143.392,184.07-4.218,229.9-4.218,229.9S-82.249,178.688,67.8,0Z" transform="translate(230.4 263.15) rotate(90)"/></g><path class="d" d="M4.218,0,0,229.9S147.61,184.07,4.218,0Z" transform="translate(63.582)"/></g></g></svg>