<svg xmlns="http://www.w3.org/2000/svg" xmlns:xlink="http://www.w3.org/1999/xlink" width="84" height="84" viewBox="0 0 84 84"><defs><style>.a{fill:none;}.b{fill:#b9cc00;}.c{clip-path:url(#a);}</style><clipPath id="a"><rect class="a" width="81" height="77" transform="translate(0 0.461)"/></clipPath></defs><g transform="translate(-704 106.071)"><path class="b" d="M7,0H28A55,55,0,0,1,83,55v0a7,7,0,0,1-7,7H7a7,7,0,0,1-7-7V7A7,7,0,0,1,7,0Z" transform="translate(705 -84.071)"/><g transform="translate(706 -106.532)"><g class="c" transform="translate(0 0)"><path d="M911.172-93.987l-4.335-10.025a3.265,3.265,0,0,0-3.027-2.008H857.335a3.306,3.306,0,0,0-3.351,3.326v33.47a1.191,1.191,0,0,0,1.191,1.191,1.191,1.191,0,0,0,1.191-1.191v-33.47a.925.925,0,0,1,.969-.945h43.252a3.467,3.467,0,0,0-.127.945v18.679a1.191,1.191,0,0,0,1.191,1.191,1.191,1.191,0,0,0,1.191-1.191v-6.764h6.222a2.29,2.29,0,0,0,1.92-1.036,2.29,2.29,0,0,0,.189-2.172Zm-8.33.826v-9.532a.924.924,0,0,1,.968-.945.871.871,0,0,1,.842.572l4.282,9.906Zm0,0" transform="translate(-830.147 105.739)"/></g></g><path d="M775.5,157.55a1.192,1.192,0,0,0-1.191,1.191v13.435l-3.948-2.681a1.188,1.188,0,0,0-1.338,0l-5.14,3.49-5.141-3.49a1.187,1.187,0,0,0-1.337,0l-5.141,3.49-5.14-3.49a1.188,1.188,0,0,0-1.338,0l-4.618,3.135,1.566-7.271h.067a2.937,2.937,0,0,0,2.933-2.934v-2.594a2.936,2.936,0,0,0-2.933-2.933H735l-6.588-10.38a1.191,1.191,0,0,0-2.012,1.277l5.779,9.1h-14.62l5.779-9.1a1.191,1.191,0,0,0-2.011-1.277l-6.588,10.38h-7.8A2.936,2.936,0,0,0,704,159.831v2.594a2.937,2.937,0,0,0,2.933,2.933H707l.685,3.181a1.194,1.194,0,0,0,.074.224l2.641,12.389a3.572,3.572,0,0,0,3.474,2.806h21.99a3.572,3.572,0,0,0,3.474-2.806l1.193-5.543c.04,0,.079.006.119.006a1.187,1.187,0,0,0,.669-.205l5.141-3.49,5.139,3.49a1.191,1.191,0,0,0,1.339,0l5.141-3.49,5.141,3.49a1.19,1.19,0,0,0,1.338,0l5.139-3.49,5.14,3.49a1.19,1.19,0,0,0,1.859-.985V158.742A1.191,1.191,0,0,0,775.5,157.55Zm-38.5,23.1a1.177,1.177,0,0,1-1.145.926h-21.99a1.179,1.179,0,0,1-1.145-.926L710,167.837a1.192,1.192,0,0,0-.078-.237l-.482-2.241H740.3Zm-29.025-17.674h-1.05a.553.553,0,0,1-.552-.552v-2.594a.553.553,0,0,1,.552-.552h6.293l-.213.336a1.191,1.191,0,1,0,2.01,1.277l1.024-1.612h17.644l1.023,1.612a1.191,1.191,0,0,0,2.011-1.277l-.213-.336h6.292a.552.552,0,0,1,.551.552v2.594a.552.552,0,0,1-.551.552H707.984Z" transform="translate(0 -212.729)"/><path d="M913.573-15.943h.01a1.19,1.19,0,0,0,.928-.458l4.623-5.917a1.191,1.191,0,0,0-.206-1.672,1.191,1.191,0,0,0-1.672.206l-3.7,4.738-.978-1.206a1.191,1.191,0,0,0-1.675-.174,1.191,1.191,0,0,0-.174,1.675l1.92,2.367a1.191,1.191,0,0,0,.925.44Zm0,0" transform="translate(-173.647 -69.574)"/><path d="M994.961.186H1012.4A1.191,1.191,0,0,0,1013.594-1a1.19,1.19,0,0,0-1.191-1.191H994.961A1.19,1.19,0,0,0,993.77-1,1.19,1.19,0,0,0,994.961.186Zm0,0" transform="translate(-243.716 -88.117)"/><path d="M910.727,60.253l1.92,2.367a1.191,1.191,0,0,0,.925.44h.01a1.189,1.189,0,0,0,.928-.457l4.623-5.917a1.191,1.191,0,0,0-1.877-1.466l-3.7,4.738-.978-1.205a1.191,1.191,0,1,0-1.849,1.5Zm0,0" transform="translate(-173.647 -136.021)"/><path d="M994.961,79.183H1012.4a1.191,1.191,0,0,0,0-2.382H994.961a1.191,1.191,0,0,0,0,2.382Zm0,0" transform="translate(-243.716 -154.558)"/><path d="M910.727,139.251l1.92,2.367a1.191,1.191,0,0,0,.925.441h.01a1.192,1.192,0,0,0,.928-.458l4.623-5.917a1.191,1.191,0,0,0-1.877-1.467l-3.7,4.739-.978-1.206a1.191,1.191,0,1,0-1.849,1.5Zm0,0" transform="translate(-173.647 -202.464)"/><path d="M1027.677,58.485a1.191,1.191,0,0,0-1.627.436l-.73,1.264-6.034-3.484,1.265-2.191a.345.345,0,0,1,.214-.164.34.34,0,0,1,.266.035l3.955,2.283a1.191,1.191,0,0,0,1.191-2.063l-3.955-2.283a2.733,2.733,0,0,0-3.734,1l-1.859,3.22,0,0,0,0-6.877,11.913H994.961a1.191,1.191,0,0,0,0,2.381h13.412l-2.823,4.891a1.192,1.192,0,0,0-.159.558l-.07,2.2c0,.017,0,.035,0,.053l-.164,5.2a2.5,2.5,0,0,0,3.813,2.2L1013.4,83.2l.036-.022,1.874-1.162a1.193,1.193,0,0,0,.4-.417l11.076-19.184,0,0,0,0,1.323-2.292a1.191,1.191,0,0,0-.436-1.627Zm-19.964,25.433a.116.116,0,0,1-.177-.1l.1-3.237,2.827,1.632Zm6.083-3.773-1.034.642-5.038-2.909.039-1.216,3.69-6.393c.011-.018.021-.035.031-.054l6.611-11.451,6.034,3.484Zm0,0" transform="translate(-243.716 -133.658)"/></g></svg>