<svg xmlns="http://www.w3.org/2000/svg" width="261.096" height="184.912" viewBox="0 0 261.096 184.912"><defs><style>.a{fill:none;}.b{fill:#fff;}.c{fill:#4c5800;}</style></defs><g transform="translate(-60 -62.889)"><g transform="translate(113.132 62.889)"><path class="a" d="M412.791,220.686a3.97,3.97,0,0,0-2.946-1.317,2.64,2.64,0,0,1-1.132-.277,35.176,35.176,0,0,1-4.368,1.91,32.983,32.983,0,0,1-3.878,1.136,33.388,33.388,0,0,1-5.558.786c-.666.038-1.329.058-1.991.058a41.461,41.461,0,0,1-14.489-2.777,59.128,59.128,0,0,1-16.353-9.529,22.434,22.434,0,0,1-2.511,8.966,37.489,37.489,0,0,1-8.4,9.786,3.443,3.443,0,0,1-.308.239,27.9,27.9,0,0,1-1.76,7.618,4.02,4.02,0,0,1-.42.8,27.469,27.469,0,0,0,.77,5.585,28.247,28.247,0,0,0,.862,2.9,2.628,2.628,0,0,1,.127.331,27.076,27.076,0,0,0,1.479,3.262,27.852,27.852,0,0,0,2.723,4.175c.023.019.046.046.069.069a1.124,1.124,0,0,1,.088.1c.023.027.046.054.069.085s.058.077.089.112.038.061.057.088.023.035.035.054a27.812,27.812,0,0,0,42.905,0c.008-.012.015-.019.019-.027a1.4,1.4,0,0,1,.1-.147c.015-.023.027-.042.042-.061l.115-.139c.015-.015.027-.031.042-.046a1.384,1.384,0,0,1,.1-.1,27.8,27.8,0,0,0,4.187-7.418,2.977,2.977,0,0,1,.135-.35,27.727,27.727,0,0,0,1.648-9.448l0-1.136.015-5.542a6.806,6.806,0,0,0,5.045.054c.05-.019.108-.042.162-.065a6.783,6.783,0,0,0,3.22-9.733Zm-55.3,16.014a1.5,1.5,0,1,1,1.5-1.5A1.5,1.5,0,0,1,357.492,236.7Zm3.836-5.08-1.814-.489a.578.578,0,1,1,.3-1.117l1.217.331c0-.05-.008-.1-.008-.146a3.631,3.631,0,0,1,.112-.871l-1.621-.435a.578.578,0,0,1,.3-1.117l1.795.485a3.5,3.5,0,1,1-.281,3.359Zm18.661,25.713a1.088,1.088,0,0,1-1.491.4,3.285,3.285,0,0,0-3.282,0,1.092,1.092,0,1,1-1.094-1.891,5.451,5.451,0,0,1,5.469,0A1.09,1.09,0,0,1,379.989,257.333Zm-3.131-4.21c-4.834,0-10.033-1.367-10.033-4.371a1.349,1.349,0,0,1,2.7-.058c.293.516,2.808,1.733,7.337,1.733s7.04-1.217,7.337-1.733a1.349,1.349,0,0,1,2.7.058C386.89,251.756,381.687,253.123,376.857,253.123ZM391.974,230.2c0,.088,0,.177-.012.266l1.664-.45a.578.578,0,0,1,.3,1.117l-2.322.628a3.5,3.5,0,1,1-.154-3.4l2.176-.586a.578.578,0,0,1,.3,1.117l-2.037.547A3.513,3.513,0,0,1,391.974,230.2Z" transform="translate(-316.158 -166.828)"/><path class="a" d="M446.691,202.612a91.123,91.123,0,0,1-19.412.27c-7.468-.844-15.806-1.941-22.188-6.108a104.507,104.507,0,0,0,19.231,2.777c6.805.393,13.615.462,20.17-1.39a5.64,5.64,0,0,1,2.184,4.11C446.687,202.381,446.687,202.5,446.691,202.612Z" transform="translate(-355.834 -157.05)"/><path class="a" d="M402.066,87.549v11.03A226.7,226.7,0,0,0,370.4,96.338a231.2,231.2,0,0,0-29.029,1.868V87.418C359.85,78.509,379.74,78.552,402.066,87.549Z" transform="translate(-311.017 -75.464)"/><path class="a" d="M444.851,191.32c-5.581,1.136-11.308,1.028-17.051.7a103.4,103.4,0,0,1-17.763-2.477A101.361,101.361,0,0,1,444.851,191.32Z" transform="translate(-359.313 -151.443)"/><path class="a" d="M325.974,339.438a80.358,80.358,0,0,0,1.329,10.11,11.848,11.848,0,0,1-1.329-2.319c-.2-.443-.385-.909-.559-1.39a25.668,25.668,0,0,1-1.475-7.784,16.889,16.889,0,0,1,1.475-7.742c.062-.127.127-.25.193-.37l.443-.8-.393-.816q-.127-.254-.243-.52a25.434,25.434,0,0,1-1.987-9.059v-.254c-.05-3.632.851-7.033,2.384-8.928l.832-1.032-.724-1.086c-1.71-2.557-2.977-7.117-3.081-11.088a19.871,19.871,0,0,1,.25-3.748,12.345,12.345,0,0,0,2.234.847,2.373,2.373,0,0,0,.1,1.706q.023,1.577.189,3.119c.011.093.023.189.038.289s.019.185.035.277.027.193.039.293a.114.114,0,0,1,.008.039c.008.046.012.089.019.135.023.142.046.285.069.431.012.1.031.212.05.32s.039.22.058.328.035.2.054.3c0,.011,0,.027.008.039.019.112.042.227.065.342s.042.231.069.351c0,.015.008.034.012.05q.052.243.1.5c.042.189.085.377.131.57a.333.333,0,0,1,.015.058c.023.1.046.2.073.293.019.077.039.158.062.235a.057.057,0,0,0,0,.027c.023.081.042.162.065.242a1.06,1.06,0,0,1,.027.1c.023.081.042.162.065.242.012.035.019.069.031.1a1.826,1.826,0,0,0,.058.208c.065.227.131.455.2.678.212.689.428,1.425.716,2.142a7.178,7.178,0,0,0-1.236,2.735c-.131.216-.262.428-.408.639a.871.871,0,0,0,.143,1.121c-.127,1.5-.054,3.043-.066,4.479-.042,4.31-.347,8.735.878,12.922C325.369,332,325.746,335.926,325.974,339.438Z" transform="translate(-297.981 -224.453)"/><path class="a" d="M344.221,376.863a25.156,25.156,0,0,1-1.548,9.267,9.392,9.392,0,0,1-1.837,3.174,76.717,76.717,0,0,1-1.456-10.091c-.266-3.543-.867-7.888,1.059-11.065a.875.875,0,0,0-.254-1.213c-.936-3.466-.763-7.06-.728-10.622.019-1.929-.289-4.5.135-6.686a14.747,14.747,0,0,0,.909-1.506l.351.389c1.61,1.795,2.688,5.1,2.846,8.685,0,.119.012.239.016.362a25.055,25.055,0,0,1-1.718,9.682l-.35.836.482.774A16.431,16.431,0,0,1,344.221,376.863Z" transform="translate(-309.407 -263.491)"/><path class="a" d="M324.045,251.245a6.637,6.637,0,0,1-1.3-.5,5.013,5.013,0,0,1-.485-.274,6.816,6.816,0,0,1-2.712-3.181,6.705,6.705,0,0,1-.52-2.6,6.467,6.467,0,0,1,.031-.67.028.028,0,0,1,0-.019,6.656,6.656,0,0,1,.7-2.388,3.827,3.827,0,0,1,.4-.5,3.937,3.937,0,0,1,2.85-1.209.475.475,0,0,0,.123-.027A22.981,22.981,0,0,1,324.045,251.245Z" transform="translate(-295.306 -187.369)"/><path class="a" d="M365.069,161.585c0,1.036-3.289,4.522-17.459,7.376a10.815,10.815,0,0,0-8.134-9.074,107.449,107.449,0,0,0-44.412-1.171h-.012c-.065.012-.127.031-.193.039-2.145.393-4.283.832-6.4,1.352-.2.05-.393.108-.593.158-1.81.454-3.617.909-5.4,1.456-.054.019-.1.046-.15.066-.073.023-.154.039-.227.062a7.589,7.589,0,0,0-5.288,7.487c0,.031,0,.065.008.1-15-2.692-19.943-6.409-19.943-7.845,0-3.582,19.092-10.557,54.1-10.557S365.069,158,365.069,161.585Z" transform="translate(-251.593 -124.877)"/><path class="a" d="M350.2,231.229s0,0-.008.008c-.046-.135-.093-.266-.139-.4C350.106,230.97,350.156,231.1,350.2,231.229Z" transform="translate(-317.125 -181.006)"/><path class="a" d="M465.967,218.1a28.491,28.491,0,0,1-9.313,2.958c-8.489,1.144-16.665-1.614-23.082-5.1a94.459,94.459,0,0,0,12.81,2.23A88.564,88.564,0,0,0,465.967,218.1Z" transform="translate(-375.865 -170.543)"/><path class="a" d="M358.17,223.877a14.285,14.285,0,0,1-1.2,2.658,25.233,25.233,0,0,1-3.744,4.818,31.044,31.044,0,0,0-.724-3.162A20.078,20.078,0,0,0,358.17,223.877Z" transform="translate(-318.851 -176.112)"/><path class="a" d="M419.936,382.462v12.475H365.715a19.5,19.5,0,0,0-2.072-7.275,28.591,28.591,0,0,0,1.656-8.616c1.094.793,2.438,1.691,3.986,2.592A39.834,39.834,0,0,0,380.6,386.16a29.144,29.144,0,0,0,12.845,0,39.762,39.762,0,0,0,11.316-4.522,42.605,42.605,0,0,0,7.245-5.207A48.743,48.743,0,0,1,419.936,382.462Z" transform="translate(-326.684 -283.403)"/><path class="b" d="M374.834,288.263a1.5,1.5,0,1,0,1.5,1.5A1.5,1.5,0,0,0,374.834,288.263Z" transform="translate(-333.499 -221.395)"/><path class="b" d="M438.612,361.162a5.468,5.468,0,0,0-5.468,0,1.094,1.094,0,0,0,1.094,1.894,3.279,3.279,0,0,1,3.28,0,1.094,1.094,0,0,0,1.094-1.894Z" transform="translate(-375.18 -272.149)"/><path class="c" d="M337.9,484.515q.281,1.438.608,2.866c.279,1.207,2.136.7,1.857-.512q-.189-.818-.36-1.638a1.554,1.554,0,0,1-.7.495C339.178,485.726,338.628,485.475,337.9,484.515Z" transform="translate(-308.58 -359.419)"/><path class="b" d="M357.833,99.6c0-6.336-9.948-10.314-22.431-12.7V73.206a2.644,2.644,0,0,0-1.618-2.434c-25.089-10.538-47.392-10.511-68.194.081a2.642,2.642,0,0,0-1.44,2.353V86.425c-13.692,2.318-25.073,6.393-25.073,13.172,0,5.357,7.025,9.505,20.841,12.375.227.046.451.1.682.142a11.848,11.848,0,0,0-1.055,1.348,12.422,12.422,0,0,0-.8,1.371,12.038,12.038,0,0,0-1.175,3.921,12.267,12.267,0,0,0-.088,1.46,12.049,12.049,0,0,0,2.95,7.911,22.092,22.092,0,0,0-.82,6.782,27.389,27.389,0,0,0,3.043,11.909A19.342,19.342,0,0,0,260.2,157.3a27.875,27.875,0,0,0,.324,3.485,52.975,52.975,0,0,0-14.108,32.133c1.541-.108,3.239-.185,5.1-.216a47.93,47.93,0,0,1,9.937-25.208v2.658a22.187,22.187,0,0,0-.739,6.455,28.887,28.887,0,0,0,.739,5.631v10.68c1.606.088,3.285.2,5.061.35V191.9a5.313,5.313,0,0,0,3.393,1.155c1.88-.05,4.541-1.178,6.521-6.282a28.563,28.563,0,0,0,1.772-8.8h54.133v16.881c1.764-.451,3.451-.94,5.061-1.448V167.495a47.877,47.877,0,0,1,9.571,22.266c1.749-.782,3.336-1.556,4.753-2.3a53.184,53.184,0,0,0-24.935-36.019s0-.008.011-.012a.021.021,0,0,1,.012-.019.069.069,0,0,1,.015-.019c.046-.081.1-.158.15-.235.285-.436.566-.882.828-1.333l.243-.416c.235-.416.466-.835.686-1.263a.278.278,0,0,0,.035.027,32.394,32.394,0,0,0,2.061-4.945c-.016-.019-.031-.034-.05-.054a32.583,32.583,0,0,0,1.429-7.133c.042-.651.077-1.29.108-1.918.012-.316.023-.628.023-.947v-1.1l.065-.012a12.1,12.1,0,0,0,6.039-20.4C351.3,108.786,357.833,104.738,357.833,99.6ZM269.426,74.843c18.483-8.908,38.372-8.866,60.7.131V86a226.7,226.7,0,0,0-31.671-2.241,231.21,231.21,0,0,0-29.029,1.868ZM262.8,120.214a6.448,6.448,0,0,1,.031-.67.029.029,0,0,1,0-.019,6.658,6.658,0,0,1,.7-2.388,3.821,3.821,0,0,1,.4-.5,3.937,3.937,0,0,1,2.85-1.209.474.474,0,0,0,.123-.027,22.981,22.981,0,0,1,.905,11.362,6.631,6.631,0,0,1-1.3-.5,5.025,5.025,0,0,1-.485-.274,6.816,6.816,0,0,1-2.712-3.181A6.705,6.705,0,0,1,262.8,120.214Zm4.271,65.452c-.2-.443-.385-.909-.559-1.39a25.664,25.664,0,0,1-1.475-7.784,16.888,16.888,0,0,1,1.475-7.742c.062-.127.127-.25.193-.37l.443-.8-.393-.817q-.127-.254-.243-.52a25.435,25.435,0,0,1-1.987-9.059v-.254c-.05-3.632.851-7.033,2.384-8.928l.832-1.032-.724-1.086c-1.71-2.557-2.977-7.118-3.081-11.088a19.872,19.872,0,0,1,.25-3.748,12.344,12.344,0,0,0,2.234.847,2.374,2.374,0,0,0,.1,1.706q.023,1.577.189,3.12c.011.093.023.189.038.289s.019.185.035.277.027.193.039.293a.114.114,0,0,1,.008.039c.008.046.012.089.019.135.023.142.046.285.069.431.012.1.031.212.05.32s.039.22.058.328.035.2.054.3c0,.011,0,.027.008.039.019.112.042.227.065.342s.042.231.069.351c0,.015.008.034.012.05q.052.243.1.5c.042.189.085.377.131.57a.328.328,0,0,1,.015.058c.023.1.046.2.073.293.019.077.039.158.062.235a.058.058,0,0,0,0,.027c.023.081.042.162.066.242a1.054,1.054,0,0,1,.027.1c.023.081.042.162.065.242.012.035.019.069.031.1a1.84,1.84,0,0,0,.058.208c.065.227.131.455.2.678.212.69.428,1.425.716,2.142a7.177,7.177,0,0,0-1.236,2.735c-.131.216-.262.428-.408.639a.872.872,0,0,0,.143,1.121c-.127,1.5-.054,3.043-.066,4.479-.042,4.31-.347,8.735.878,12.922-1.629,3.231-1.252,7.156-1.025,10.668a80.344,80.344,0,0,0,1.329,10.11A11.843,11.843,0,0,1,267.069,185.666Zm5.273-.139A9.392,9.392,0,0,1,270.5,188.7a76.717,76.717,0,0,1-1.456-10.091c-.266-3.543-.867-7.888,1.059-11.065a.875.875,0,0,0-.254-1.213c-.936-3.466-.763-7.06-.728-10.622.019-1.929-.289-4.5.135-6.686a14.741,14.741,0,0,0,.909-1.506l.351.389c1.61,1.795,2.688,5.1,2.846,8.685,0,.119.012.239.015.362a25.055,25.055,0,0,1-1.718,9.682l-.35.836.482.774a16.431,16.431,0,0,1,2.095,8.015A25.153,25.153,0,0,1,272.341,185.527Zm5.839-77.638a17.811,17.811,0,0,1-6.031,5.223s0,0-.008.008c-.046-.135-.093-.266-.139-.4-.039-.089-.073-.181-.116-.274a15.421,15.421,0,0,0-.847-1.614l.108-.069a33.646,33.646,0,0,0,4.24-2.634,31.42,31.42,0,0,0,3.951-3.193c.3-.289.59-.585.874-.89.069-.073.139-.147.208-.223-.085.212-.166.42-.258.628a17.2,17.2,0,0,1-.909,1.806A17.889,17.889,0,0,1,278.18,107.889Zm.216,2.765a14.284,14.284,0,0,1-1.2,2.658,25.236,25.236,0,0,1-3.744,4.818,31.065,31.065,0,0,0-.724-3.162A20.078,20.078,0,0,0,278.4,110.654Zm-3.982-4.186a29.845,29.845,0,0,1-4.406,2.727c-.312-.458-.524-.751-.524-.751,0-.1.077-.89.112-1.182,0-.027,0-.05.008-.069s0-.023,0-.031a.023.023,0,0,1,0-.015,1.012,1.012,0,0,1,.027-.185,1.183,1.183,0,0,1,.042-.2.029.029,0,0,1,0-.015,1.618,1.618,0,0,1,.054-.181,2.764,2.764,0,0,1,.393-.774,2.187,2.187,0,0,1,.243-.293,1.522,1.522,0,0,1,.115-.115c.027-.023.054-.05.081-.073a2.407,2.407,0,0,1,.481-.328,1.418,1.418,0,0,1,.15-.077c.081-.035.162-.069.247-.1.189-.054.377-.112.57-.162.008,0,.019,0,.027-.008.69-.239,4.41-1.2,6.652-1.768A27.636,27.636,0,0,1,274.414,106.468Zm57.915,55.481v12.475H278.107a19.5,19.5,0,0,0-2.072-7.275,28.6,28.6,0,0,0,1.656-8.616c1.094.793,2.438,1.691,3.986,2.592A39.835,39.835,0,0,0,293,165.646a29.141,29.141,0,0,0,12.845,0,39.759,39.759,0,0,0,11.316-4.522,42.607,42.607,0,0,0,7.245-5.207A48.754,48.754,0,0,1,332.328,161.948Zm.162-35.468c-.054.023-.112.046-.162.065a6.805,6.805,0,0,1-5.045-.054l-.016,5.542,0,1.136a27.725,27.725,0,0,1-1.648,9.448,2.977,2.977,0,0,0-.135.35,27.8,27.8,0,0,1-4.187,7.418,1.372,1.372,0,0,0-.1.1c-.016.015-.027.031-.042.046l-.115.139c-.016.019-.027.038-.042.061a1.406,1.406,0,0,0-.1.147c0,.008-.012.015-.019.027a27.812,27.812,0,0,1-42.905,0c-.012-.019-.023-.035-.035-.054s-.038-.058-.058-.088-.058-.073-.089-.112-.046-.058-.069-.085a1.111,1.111,0,0,0-.088-.1c-.023-.023-.046-.05-.069-.069a27.852,27.852,0,0,1-2.723-4.175,27.063,27.063,0,0,1-1.479-3.262,2.652,2.652,0,0,0-.127-.331,28.249,28.249,0,0,1-.862-2.9,27.465,27.465,0,0,1-.77-5.585,4.02,4.02,0,0,0,.419-.8,27.9,27.9,0,0,0,1.76-7.618,3.421,3.421,0,0,0,.308-.239,37.488,37.488,0,0,0,8.4-9.786,22.435,22.435,0,0,0,2.511-8.966,59.129,59.129,0,0,0,16.353,9.529,41.461,41.461,0,0,0,14.489,2.777q.994,0,1.991-.058a33.389,33.389,0,0,0,5.558-.786,32.977,32.977,0,0,0,3.878-1.136,35.174,35.174,0,0,0,4.368-1.91,2.64,2.64,0,0,0,1.132.277,3.97,3.97,0,0,1,2.946,1.317,6.783,6.783,0,0,1-3.22,9.733Zm-24.927-21.091c6.805.393,13.615.462,20.17-1.39a5.64,5.64,0,0,1,2.184,4.11c.012.112.012.227.015.343a91.124,91.124,0,0,1-19.412.27c-7.468-.844-15.806-1.941-22.188-6.108a.365.365,0,0,0-.061-.015c-.208-.054-.412-.108-.62-.158a.845.845,0,0,1,.547.1c.027.015.058.027.088.046.015.012.031.019.046.031A104.508,104.508,0,0,0,307.563,105.389Zm-17.763-4.4a101.36,101.36,0,0,1,34.814,1.779c-5.581,1.136-11.308,1.028-17.05.7A103.4,103.4,0,0,1,289.8,100.987Zm39.378,9.463a28.49,28.49,0,0,1-9.313,2.958c-8.489,1.144-16.665-1.614-23.082-5.1a94.454,94.454,0,0,0,12.81,2.23A88.561,88.561,0,0,0,329.178,110.45Zm5.916-3.478a10.815,10.815,0,0,0-8.134-9.074,107.45,107.45,0,0,0-44.411-1.171h-.012c-.066.012-.127.031-.193.039-2.145.393-4.283.832-6.4,1.352-.2.05-.393.108-.593.158-1.81.454-3.616.909-5.4,1.456-.054.019-.1.046-.15.066-.073.023-.154.039-.227.062a7.589,7.589,0,0,0-5.288,7.487c0,.031,0,.065.008.1-15-2.692-19.943-6.409-19.943-7.845,0-3.582,19.092-10.557,54.1-10.557s54.1,6.975,54.1,10.557C352.552,100.633,349.263,104.118,335.094,106.972Z" transform="translate(-239.076 -62.889)"/><path class="b" d="M480.4,268.411a.578.578,0,0,1-.408.709l-2.322.628a3.5,3.5,0,1,1-.154-3.4l2.176-.586a.578.578,0,0,1,.3,1.117l-2.037.547a3.513,3.513,0,0,1,.085.759c0,.088,0,.177-.012.266l1.664-.45A.579.579,0,0,1,480.4,268.411Z" transform="translate(-402.222 -204.816)"/><path class="b" d="M392.692,268.187a3.5,3.5,0,0,1-6.69,1.421l-1.814-.489a.578.578,0,0,1,.3-1.117l1.217.331c0-.05-.008-.1-.008-.146a3.63,3.63,0,0,1,.112-.871l-1.621-.435a.578.578,0,0,1,.3-1.117l1.795.485a3.5,3.5,0,0,1,6.409,1.938Z" transform="translate(-340.831 -204.816)"/><path class="c" d="M377.816,200.849c-.084.212-.166.42-.258.628l.05-.4C377.678,201,377.747,200.926,377.816,200.849Z" transform="translate(-336.47 -159.916)"/><path class="b" d="M428.559,334.457a1.349,1.349,0,0,0-1.347,1.291c-.3.516-2.81,1.736-7.337,1.736s-7.042-1.22-7.338-1.736a1.348,1.348,0,0,0-2.695.057c0,3.006,5.2,4.375,10.033,4.375s10.032-1.369,10.032-4.375A1.348,1.348,0,0,0,428.559,334.457Z" transform="translate(-359.176 -253.883)"/><path class="c" d="M404.772,196.59a.374.374,0,0,0-.061-.015l-.073-.062c.027.015.058.027.089.046C404.741,196.571,404.756,196.579,404.772,196.59Z" transform="translate(-355.515 -156.867)"/><path class="c" d="M403.414,196.318c-.208-.054-.412-.108-.62-.158a.846.846,0,0,1,.547.1Z" transform="translate(-354.219 -156.61)"/></g><g transform="translate(60 179.629)"><g transform="translate(85.937 52.441)"><path class="b" d="M349.642,651.149v-.033a6.268,6.268,0,0,1,12.531-.034v.034a6.268,6.268,0,0,1-12.531.033Zm9.82,0v-.033a3.582,3.582,0,0,0-3.571-3.706,3.526,3.526,0,0,0-3.537,3.672v.034a3.582,3.582,0,0,0,3.571,3.705A3.526,3.526,0,0,0,359.462,651.149Z" transform="translate(-349.642 -641.481)"/><path class="b" d="M420.09,645.7h5.39a4.7,4.7,0,0,1,3.436,1.2,3.7,3.7,0,0,1,1.01,2.695v.034a3.662,3.662,0,0,1-2.526,3.655l2.88,4.211h-3.032l-2.526-3.773h-2.038v3.773H420.09Zm5.222,5.727c1.263,0,1.987-.674,1.987-1.668v-.034c0-1.112-.775-1.684-2.038-1.684h-2.577v3.386Z" transform="translate(-399.188 -641.96)"/><path class="b" d="M479.81,651.149v-.033a6.051,6.051,0,0,1,6.181-6.1,6.472,6.472,0,0,1,4.632,1.617l-1.634,1.97a4.343,4.343,0,0,0-3.082-1.2,3.541,3.541,0,0,0-3.385,3.672v.034a3.532,3.532,0,0,0,3.571,3.739,4.137,4.137,0,0,0,2.442-.708v-1.684h-2.611v-2.24h5.12v5.12a7.654,7.654,0,0,1-5.036,1.869A5.9,5.9,0,0,1,479.81,651.149Z" transform="translate(-441.189 -641.481)"/><path class="b" d="M548.16,636.752h2.392l5.053,11.875h-2.711l-1.078-2.645h-4.986l-1.078,2.645h-2.644Zm2.729,6.939-1.566-3.823-1.567,3.823ZM550.35,633.1l2.206.96-2.291,1.684h-1.954Z" transform="translate(-485.706 -633.097)"/><path class="b" d="M611.8,645.7h2.392l5.525,7.259V645.7h2.56v11.79h-2.206l-5.71-7.5v7.5H611.8Z" transform="translate(-534.015 -641.96)"/><path class="b" d="M677.475,645.7h2.594v11.79h-2.594Z" transform="translate(-580.207 -641.96)"/><path class="b" d="M714.829,651.149v-.033a5.992,5.992,0,0,1,6.148-6.1,6.082,6.082,0,0,1,4.648,1.819l-1.65,1.9a4.353,4.353,0,0,0-3.015-1.33,3.493,3.493,0,0,0-3.419,3.672v.034a3.5,3.5,0,0,0,3.419,3.705,4.257,4.257,0,0,0,3.1-1.381l1.65,1.668a6.027,6.027,0,0,1-4.834,2.1A5.951,5.951,0,0,1,714.829,651.149Z" transform="translate(-606.478 -641.481)"/><path class="b" d="M776.025,651.149v-.033a6.269,6.269,0,0,1,12.531-.034v.034a6.269,6.269,0,0,1-12.531.033Zm9.82,0v-.033a3.582,3.582,0,0,0-3.571-3.706,3.526,3.526,0,0,0-3.537,3.672v.034a3.582,3.582,0,0,0,3.571,3.705A3.526,3.526,0,0,0,785.845,651.149Z" transform="translate(-649.517 -641.481)"/><path class="b" d="M843.465,655.372,845,653.536a5.409,5.409,0,0,0,3.521,1.432c1.061,0,1.7-.421,1.7-1.112v-.034c0-.657-.4-.994-2.375-1.5-2.375-.606-3.907-1.264-3.907-3.6v-.034c0-2.139,1.718-3.554,4.126-3.554a6.825,6.825,0,0,1,4.38,1.5l-1.348,1.953a5.532,5.532,0,0,0-3.065-1.162c-.994,0-1.516.455-1.516,1.027v.034c0,.775.505,1.027,2.543,1.549,2.392.623,3.739,1.482,3.739,3.537v.033c0,2.341-1.785,3.655-4.328,3.655A7.5,7.5,0,0,1,843.465,655.372Z" transform="translate(-696.948 -641.56)"/></g><g transform="translate(191.276 12.396)"><path class="b" d="M712.884,498.191s-3.746-.594-6.243,1.9a7.69,7.69,0,0,0-1.936,5.934l3.935-3.935.343.343-3.935,3.935a7.687,7.687,0,0,0,5.934-1.936C713.478,501.938,712.884,498.191,712.884,498.191Z" transform="translate(-704.678 -498.13)"/></g><g transform="translate(0 0)"><path class="b" d="M138.492,511.477a2.371,2.371,0,0,1-1.206,1.24c-.042.019-.135.066-3.566,1.337a83.422,83.422,0,0,1-9.914,2.734,154.623,154.623,0,0,1-18.664,3.074c-6.081.608-12.229.92-18.275.92h-.008a37.326,37.326,0,0,1-12.394-2.334,22.891,22.891,0,0,1-9.964-7.295,21.819,21.819,0,0,1-4.121-9.271,26.332,26.332,0,0,1,.509-11.165,56.97,56.97,0,0,1,5.858-14.42,50.422,50.422,0,0,1,9.3-11.755,35.839,35.839,0,0,1,4.822-3.863,34.367,34.367,0,0,1,4.891-2.719c3.393-1.5,6.451-1.956,9.094-1.352a7.922,7.922,0,0,1,5.9,5.107c1.032,2.58,1.144,5.931.335,9.948a2.407,2.407,0,0,1-.978,1.441,2.124,2.124,0,0,1-1.764.316,2.008,2.008,0,0,1-1.41-.963,2.385,2.385,0,0,1-.339-1.691c.169-.84.3-1.795.408-2.85a11.219,11.219,0,0,0-.088-3,6.37,6.37,0,0,0-.955-2.473,3.311,3.311,0,0,0-2.107-1.356,10.714,10.714,0,0,0-6.27,1.051,29.414,29.414,0,0,0-8.423,5.743A46.809,46.809,0,0,0,70.7,478.643a52.753,52.753,0,0,0-5.4,13.211,21.317,21.317,0,0,0-.531,8.974,16.646,16.646,0,0,0,3.308,7.51,19.354,19.354,0,0,0,7.842,5.824,28.131,28.131,0,0,0,10.946,2.057,154.51,154.51,0,0,0,20.967-1.263c6.012-.836,10.988-1.706,14.79-2.584,2.057-.462,3.9-.928,5.481-1.386s2.95-.886,4.029-1.26c1.3-.42,2.419-.82,3.327-1.19a2.282,2.282,0,0,1,1.772-.035,2.18,2.18,0,0,1,1.259,1.252A2.061,2.061,0,0,1,138.492,511.477Z" transform="translate(-60 -456.349)"/><g transform="translate(37.848 1.933)"><path class="b" d="M410.735,495.893a2.277,2.277,0,0,0-2.8-1.633,2.1,2.1,0,0,0-1.383,1.071l-.046.088v.012c-.065.119-.273.47-.92,1.494a33.782,33.782,0,0,1-2.531,3.4,20.736,20.736,0,0,1-3.381,3.351,4.616,4.616,0,0,1-2.519,1.125,1.059,1.059,0,0,1-.555-.1.907.907,0,0,1-.281-.258c-.281-.358-.62-1.221-.643-3.309a29.212,29.212,0,0,1,1.217-7.291,2.1,2.1,0,0,0-.193-1.614,2.591,2.591,0,0,0-1.248-1.125,2.219,2.219,0,0,0-1.113-.116,2.055,2.055,0,0,0,.474-1.017,8.426,8.426,0,0,0,.193-3.385,5.113,5.113,0,0,0-.9-2.153,4.027,4.027,0,0,0-1.333-1.152,9.2,9.2,0,0,0-1.094-.474,7,7,0,0,0-4.348.528,16.35,16.35,0,0,0-4.664,3.1,24.651,24.651,0,0,0-4.206,5.076A22.274,22.274,0,0,0,376.68,495l0,0a2.066,2.066,0,0,0-.22.331,18.157,18.157,0,0,1-.959,1.61q-.474.693-1.1,1.571c-.416.582-.878,1.194-1.379,1.818a18.906,18.906,0,0,1-3.312,3.347,4.587,4.587,0,0,1-2.457,1.125,3.018,3.018,0,0,1-.531-.057c-.193-.035-.25-.081-.258-.069a1.659,1.659,0,0,1-.127-.474,7.868,7.868,0,0,1,.035-1.818,43.845,43.845,0,0,1,1.2-5.789c.081-.451.177-.878.281-1.267s.216-.8.347-1.24c.589-2.484,1.009-4.537,1.24-6.1a5.325,5.325,0,0,0-.794-4.071,3.69,3.69,0,0,0-1.094-.959,3.768,3.768,0,0,0-2-.466c-1.988,0-4.21,1.383-6.8,4.237-.639.728-1.3,1.521-1.968,2.353-.223.277-.447.562-.674.859.115-.331.235-.663.354-.99.4-1.1.813-2.234,1.221-3.389a1.857,1.857,0,0,0-.073-1.733,2.678,2.678,0,0,0-1.267-1.182,1.986,1.986,0,0,0-1.787.081,2.647,2.647,0,0,0-1.186,1.283c-1.055,2.946-2.053,5.8-2.974,8.477q-.491,1.421-.936,2.727c-.039.058-.073.116-.108.177-.3.5-.632,1.025-.99,1.544-.339.466-.716,1.013-1.117,1.629s-.847,1.221-1.341,1.833a18.55,18.55,0,0,1-3.278,3.316,4.573,4.573,0,0,1-2.488,1.094,1.678,1.678,0,0,1-.817-.135,1.378,1.378,0,0,1-.382-.327,4.312,4.312,0,0,1-.45-1.3,11.059,11.059,0,0,1-.089-3.108,38.921,38.921,0,0,1,.974-5.662A90.986,90.986,0,0,1,342,485.486a2.062,2.062,0,0,0-.042-1.776,2.492,2.492,0,0,0-1.329-1.2,2.265,2.265,0,0,0-2.889,1.437,84.006,84.006,0,0,0-3.251,11.327l0,0a1.007,1.007,0,0,0-.065.112c-.293.5-.628,1.025-.99,1.544-.339.466-.712,1.013-1.117,1.629a16.986,16.986,0,0,1-1.336,1.772,19.555,19.555,0,0,1-3.285,3.347,4.469,4.469,0,0,1-2.484,1.125,1.58,1.58,0,0,1-.836-.162.921.921,0,0,1-.335-.319L324,504.27a4.26,4.26,0,0,1-.5-1.471,12.423,12.423,0,0,1,.069-3.64,52.7,52.7,0,0,1,2.2-9.532c.585-1.887,1.275-3.932,2.049-6.085.728-2.026,2.118-5.508,3.135-8.05l.123-.3,10.28-2.107a2.114,2.114,0,0,0,1.456-.955,2.3,2.3,0,0,0,.378-1.7l-.008-.031a2.361,2.361,0,0,0-1.013-1.429,2.317,2.317,0,0,0-1.714-.373l-7.3,1.5,1.725-3.994a2.221,2.221,0,0,0,.042-1.749,2.173,2.173,0,0,0-1.248-1.29,2.051,2.051,0,0,0-1.733,0,2.337,2.337,0,0,0-1.24,1.209q-.7,1.583-1.456,3.355-.728,1.687-1.506,3.547l-4.275.9a2.024,2.024,0,0,0-1.433.967,2.373,2.373,0,0,0-.335,1.695,2.162,2.162,0,0,0,.766,1.337,2.216,2.216,0,0,0,1.444.5h.381l1.4-.3c-.116.3-.239.616-.37.951-.708,1.814-1.591,4.067-2.083,5.465-.647,1.841-1.279,3.717-1.868,5.581-.786,2.58-1.39,4.915-1.81,6.979,0,0,0,0,0,.008-.019.031-.039.054-.054.085a17.338,17.338,0,0,1-.959,1.61q-.474.693-1.1,1.571c-.412.582-.878,1.194-1.379,1.818a18.916,18.916,0,0,1-3.312,3.347,4.59,4.59,0,0,1-2.453,1.125,3.021,3.021,0,0,1-.535-.057c-.189-.035-.25-.081-.258-.069a1.644,1.644,0,0,1-.127-.474,8,8,0,0,1,.038-1.818,42.665,42.665,0,0,1,1.2-5.789c.081-.451.173-.878.277-1.267s.22-.8.35-1.24c.589-2.484,1.005-4.537,1.237-6.1a5.325,5.325,0,0,0-.794-4.071,3.672,3.672,0,0,0-1.09-.959,3.793,3.793,0,0,0-2.007-.466c-1.983,0-4.21,1.383-6.8,4.237-.643.728-1.306,1.521-1.972,2.353-.223.277-.447.562-.67.859.115-.331.231-.663.35-.99.4-1.1.813-2.234,1.225-3.389a1.858,1.858,0,0,0-.077-1.733,2.661,2.661,0,0,0-1.267-1.182,1.978,1.978,0,0,0-1.783.081,2.658,2.658,0,0,0-1.19,1.283c-1.051,2.946-2.053,5.8-2.973,8.477-.327.947-.635,1.853-.932,2.719l0,0c-.042.065-.081.131-.12.2a9.43,9.43,0,0,1-.917,1.463c-.328.451-.728.967-1.186,1.533s-.982,1.136-1.556,1.71c-2.985,2.985-6.278,4.5-9.779,4.5a10.3,10.3,0,0,1-3.474-.612,3.875,3.875,0,0,1-2.122-1.772,15.834,15.834,0,0,0,6.547-2.211,17.037,17.037,0,0,0,3.135-2.326,17.74,17.74,0,0,0,2.558-2.977,14.922,14.922,0,0,0,2.234-5.03,7.558,7.558,0,0,0-.181-4.441,4.556,4.556,0,0,0-2.068-2.3,5.45,5.45,0,0,0-3.189-.516,10.886,10.886,0,0,0-4.132,1.437,17.721,17.721,0,0,0-4.071,3.166,20.953,20.953,0,0,0-3.605,4.991,21.183,21.183,0,0,0-1.414,3.416l0,0c-.281.485-.6.99-.955,1.491-.339.466-.7,1-1.117,1.629-.393.6-.843,1.217-1.336,1.833a18.55,18.55,0,0,1-3.281,3.316,4.561,4.561,0,0,1-2.488,1.094,2.416,2.416,0,0,1-.493-.057.86.86,0,0,1-.239-.073,1.829,1.829,0,0,1-.158-.489,6.42,6.42,0,0,1,.008-1.8,25.168,25.168,0,0,1,.435-2.519c.212-.94.466-2.033.759-3.247l.632-2.527c.632-2.484,1.07-4.537,1.3-6.109a5.323,5.323,0,0,0-.817-4.1,4.758,4.758,0,0,0-1.132-.932,3.768,3.768,0,0,0-2-.466,5.912,5.912,0,0,0-3.216,1.071,21.019,21.019,0,0,0-3.582,3.162c-.89.978-1.856,2.145-2.866,3.47-.9,1.186-1.845,2.527-2.808,3.979.208-1.286.339-2.415.4-3.37a26.187,26.187,0,0,0,.031-3.4,9.421,9.421,0,0,0-.366-2.18,4.945,4.945,0,0,0-.62-1.3l-.027-.035a5.018,5.018,0,0,0-1.2-.994,3.052,3.052,0,0,0-1.552-.4,5.891,5.891,0,0,0-3.212,1.071,20.826,20.826,0,0,0-3.6,3.177l-1.926,2.338c-.2.246-.412.5-.616.766l1.491-4.229a2.061,2.061,0,0,0-.042-1.776,2.5,2.5,0,0,0-1.321-1.2,2.159,2.159,0,0,0-1.722.112,2.224,2.224,0,0,0-1.175,1.26c-1.051,2.946-2.053,5.8-2.974,8.477-.327.947-.635,1.853-.932,2.719,0,0,0,0,0,0-.042.065-.081.131-.119.2a9.393,9.393,0,0,1-.913,1.463c-.331.451-.732.967-1.19,1.533s-.982,1.136-1.552,1.71c-2.989,2.985-6.278,4.5-9.783,4.5a10.317,10.317,0,0,1-3.474-.612,3.889,3.889,0,0,1-2.122-1.772,15.835,15.835,0,0,0,6.548-2.211,17.2,17.2,0,0,0,3.139-2.326,17.531,17.531,0,0,0,2.553-2.977,15,15,0,0,0,2.238-5.03,7.619,7.619,0,0,0-.181-4.441,4.561,4.561,0,0,0-2.072-2.3,5.448,5.448,0,0,0-3.189-.516,10.931,10.931,0,0,0-4.133,1.437,17.725,17.725,0,0,0-4.071,3.166,21.155,21.155,0,0,0-3.6,4.991,20.921,20.921,0,0,0-1.364,3.278.183.183,0,0,0-.023.035,18.557,18.557,0,0,1-.959,1.61q-.474.693-1.1,1.571c-.42.585-.882,1.2-1.379,1.818a19.55,19.55,0,0,1-3.281,3.347A4.488,4.488,0,0,1,193.9,504.8a1.58,1.58,0,0,1-.836-.162.922.922,0,0,1-.335-.319l-.031-.054a4.14,4.14,0,0,1-.509-1.471,12.42,12.42,0,0,1,.069-3.64,50.962,50.962,0,0,1,2.2-9.6,218.957,218.957,0,0,1,8.454-21.953,2.259,2.259,0,0,0-2.939-3.043,2.366,2.366,0,0,0-1.244,1.213l-2.084,4.868c-.755,1.756-1.521,3.632-2.284,5.573-.767,1.964-1.521,3.975-2.245,5.985-.736,2.037-1.429,4.071-2.061,6.059a53.86,53.86,0,0,0-2.45,11.558c-.2,3,.239,5.346,1.286,6.96a6.212,6.212,0,0,0,1.718,1.725,5.594,5.594,0,0,0,3.289.863,8.8,8.8,0,0,0,5.357-2.169,23.669,23.669,0,0,0,3.643-3.578,8.4,8.4,0,0,0,1.2,2.13c1.88,2.272,4.83,3.424,8.766,3.424a16.5,16.5,0,0,0,6.894-1.517,19.475,19.475,0,0,0,3.019-1.726c-.1.308-.146.458-.166.535a1.984,1.984,0,0,0,.088,1.61,2.362,2.362,0,0,0,1.183,1.121,2.141,2.141,0,0,0,2.068-.073,2.085,2.085,0,0,0,.844-.9c.72-1.313,1.379-2.492,1.957-3.5s1.29-2.2,2.11-3.493,1.675-2.638,2.554-3.975c1.294-1.922,2.45-3.532,3.428-4.783a38.866,38.866,0,0,1,2.565-3,14.707,14.707,0,0,1,1.753-1.6c.2-.146.377-.269.535-.373.008.111.015.231.023.365.019.424.008,1.005-.031,1.729s-.127,1.641-.25,2.7-.335,2.349-.632,3.867c-.208,1.217-.443,2.392-.689,3.49s-.493,2.118-.724,3.058l-.6,2.4c-.166.662-.293,1.121-.37,1.356a2.081,2.081,0,0,0,.077,1.656,2.374,2.374,0,0,0,1.2,1.163,2.148,2.148,0,0,0,1.679.077,2.1,2.1,0,0,0,1.221-1.125c.72-1.317,1.379-2.5,1.956-3.5s1.29-2.2,2.107-3.493,1.679-2.638,2.553-3.975c1.464-2.172,2.742-3.94,3.805-5.249s1.968-2.345,2.692-3.07a10,10,0,0,1,1.664-1.425c.115-.074.216-.131.3-.177v.034a6.282,6.282,0,0,1-.12,1c-.123.62-.281,1.317-.47,2.068s-.393,1.618-.6,2.534l-.632,2.592c-.289,1.2-.566,2.392-.82,3.547a24.354,24.354,0,0,0-.516,3.243,10.85,10.85,0,0,0,.1,2.819,5.62,5.62,0,0,0,1,2.357,5.305,5.305,0,0,0,4.344,1.849,9.16,9.16,0,0,0,5.361-2.11,26.068,26.068,0,0,0,3.636-3.632,8.561,8.561,0,0,0,1.2,2.126c1.88,2.272,4.83,3.424,8.766,3.424a16.5,16.5,0,0,0,6.894-1.517,19.3,19.3,0,0,0,3.085-1.776c-.054.166-.108.335-.162.5a2.16,2.16,0,0,0,.039,1.641,2.217,2.217,0,0,0,1.163,1.171,2.042,2.042,0,0,0,.928.231,2.308,2.308,0,0,0,2.049-1.221c.666-1.286,1.31-2.461,1.918-3.49.6-1.013,1.313-2.192,2.115-3.5.79-1.29,1.66-2.623,2.588-3.975,1.417-2.169,2.677-3.936,3.736-5.246s1.972-2.345,2.692-3.07a9.2,9.2,0,0,1,1.691-1.421c.115-.069.22-.123.3-.173-.019.258-.069.6-.15,1.052a18.788,18.788,0,0,1-.4,2.041c-.189.762-.393,1.618-.6,2.523l-.7,2.6c-.3,1.24-.57,2.434-.793,3.551a28.052,28.052,0,0,0-.482,3.239,11.8,11.8,0,0,0,.065,2.808,4.916,4.916,0,0,0,1.024,2.361,5.193,5.193,0,0,0,4.352,1.857,8.8,8.8,0,0,0,5.354-2.169,23.4,23.4,0,0,0,3.409-3.3,7.936,7.936,0,0,0,1.1,2.9,7.22,7.22,0,0,0,1.768,1.706,5.593,5.593,0,0,0,3.289.863,9.151,9.151,0,0,0,5.361-2.11,26.1,26.1,0,0,0,3.439-3.4,7.6,7.6,0,0,0,1.248,3.124,5.944,5.944,0,0,0,1.718,1.591,5.654,5.654,0,0,0,3.155.793,9.16,9.16,0,0,0,5.361-2.11c.027-.02.05-.043.077-.066a2.245,2.245,0,0,0,1.34,2.007,2.07,2.07,0,0,0,.932.231,2.313,2.313,0,0,0,2.049-1.221c.666-1.286,1.309-2.461,1.918-3.49.6-1.013,1.313-2.192,2.115-3.5.79-1.29,1.66-2.623,2.584-3.975,1.421-2.169,2.681-3.936,3.74-5.246s1.968-2.345,2.692-3.07a9.338,9.338,0,0,1,1.687-1.421c.12-.069.219-.123.308-.173-.023.258-.073.6-.15,1.052a18.715,18.715,0,0,1-.4,2.041c-.189.762-.393,1.618-.6,2.523l-.7,2.6c-.3,1.24-.566,2.434-.793,3.551a28.872,28.872,0,0,0-.478,3.239,11.784,11.784,0,0,0,.066,2.808,4.91,4.91,0,0,0,1.024,2.361,5.19,5.19,0,0,0,4.348,1.857A8.8,8.8,0,0,0,372.6,507.2a21.776,21.776,0,0,0,2.862-2.684c0,.008,0,.015.008.023a7.39,7.39,0,0,0,1.437,2.735,5.872,5.872,0,0,0,2.411,1.691,6.732,6.732,0,0,0,4.471-.054,12.913,12.913,0,0,0,4.5-2.546c.6-.509,1.2-1.078,1.8-1.7q.583-.6,1.144-1.279a7.991,7.991,0,0,0,1.495,3.863,5.2,5.2,0,0,0,4.418,2.118,9.167,9.167,0,0,0,5.361-2.107c.639-.512,1.31-1.105,1.987-1.764a24.142,24.142,0,0,0,2.053-2.28c.555-.678,1.079-1.352,1.56-2s.909-1.263,1.248-1.791.609-.943.82-1.259a3.4,3.4,0,0,0,.358-.612A2.257,2.257,0,0,0,410.735,495.893Zm-202.08-1.96a17.33,17.33,0,0,1,2.723-3.713,11.382,11.382,0,0,1,3.085-2.384,8.654,8.654,0,0,1,2.319-.851l.115-.035a.322.322,0,0,1,.146-.023,1.43,1.43,0,0,1,.25.019l.031.069a3.18,3.18,0,0,1-.085,1.96,10.268,10.268,0,0,1-1.529,3.166,12.653,12.653,0,0,1-3.959,3.836,12.268,12.268,0,0,1-4.572,1.675A16.4,16.4,0,0,1,208.655,493.932Zm64.674,3.4.012-.035c.027-.1.058-.2.088-.3a.406.406,0,0,0,.019-.073,16.544,16.544,0,0,1,1.271-2.993,17.317,17.317,0,0,1,2.723-3.713,11.423,11.423,0,0,1,3.081-2.384,8.719,8.719,0,0,1,2.323-.851l.112-.035a.338.338,0,0,1,.147-.023,1.483,1.483,0,0,1,.254.019l.031.069a3.226,3.226,0,0,1-.088,1.96,10.252,10.252,0,0,1-1.525,3.166,12.7,12.7,0,0,1-3.959,3.836,12.293,12.293,0,0,1-4.572,1.675C273.271,497.545,273.3,497.441,273.329,497.333Zm119.3-5.007a32.676,32.676,0,0,1-3.932,6.933,27.555,27.555,0,0,1-3.293,3.609,8.426,8.426,0,0,1-2.827,1.668,3.025,3.025,0,0,1-1.729.1c-.578-.2-.928-.793-1.074-1.81a9.987,9.987,0,0,1,.431-4.048,17.805,17.805,0,0,1,2.137-4.857,20.541,20.541,0,0,1,3.382-4.129,10.309,10.309,0,0,1,3.127-2.165,5,5,0,0,1,1.568-.412c.023,0,.046,0,.066,0,0,0,0,0,0,.008a2.488,2.488,0,0,1,.054.443,5.692,5.692,0,0,1-.146,1.368,2.211,2.211,0,0,0,1.737,2.681,2.12,2.12,0,0,0,.847.046A2.438,2.438,0,0,0,392.625,492.326Z" transform="translate(-187.564 -462.865)"/></g></g></g></g></svg>