<svg xmlns="http://www.w3.org/2000/svg" width="83" height="84" viewBox="0 0 83 84"><defs><style>.a{fill:#b9cc00;}.b{fill:#262626;}</style></defs><g transform="translate(-26 -16)"><path class="a" d="M7,0H28A55,55,0,0,1,83,55v0a7,7,0,0,1-7,7H7a7,7,0,0,1-7-7V7A7,7,0,0,1,7,0Z" transform="translate(26 38)"/><path class="b" d="M95.676,16H40.19L32,32.38V39.1a5.117,5.117,0,0,0,2.567,4.42V67.333H32V93h71.867V67.333H101.3V43.52a5.117,5.117,0,0,0,2.567-4.42V32.38ZM93.6,39.1a2.567,2.567,0,1,1-5.133,0V36.533H93.6Zm-7.7,0a2.567,2.567,0,1,1-5.133,0V36.533H85.9Zm-7.7,0a2.567,2.567,0,1,1-5.133,0V36.533H78.2Zm-7.7,0a2.567,2.567,0,1,1-5.133,0V36.533H70.5Zm-7.7,0a2.567,2.567,0,1,1-5.133,0V36.533H62.8Zm-7.7,0a2.567,2.567,0,1,1-5.133,0V36.533H55.1Zm-7.7,0a2.567,2.567,0,1,1-5.133,0V36.533H47.4Zm17.967-5.133v-15.4H70.5v15.4Zm-2.567,0H57.667v-15.4H62.8Zm-7.7,0H50.163l2.2-15.4H55.1Zm-7.529,0H42.685l4.4-15.4H49.77Zm40.9,0H88.3l-2.2-15.4h2.686l4.4,15.4ZM83.5,18.567l2.2,15.4H80.767v-15.4Zm-5.3,15.4H73.067v-15.4H78.2Zm-43.633-.98,7.21-14.42h2.639l-4.4,15.4H34.567ZM39.7,36.533V39.1a2.567,2.567,0,1,1-5.133,0V36.533Zm61.6,53.9H34.567V69.9H101.3ZM42.267,63.483V62.2H43.55a3.85,3.85,0,0,1,3.85,3.85v1.283H46.117A3.85,3.85,0,0,1,42.267,63.483ZM62.8,67.333H61.517a3.85,3.85,0,0,1-3.85-3.85V62.2H58.95a3.85,3.85,0,0,1,3.85,3.85Zm-12.833-3.85V62.2H51.25a3.85,3.85,0,0,1,3.85,3.85v1.283H53.817A3.85,3.85,0,0,1,49.967,63.483Zm7.7-3.85H56.383a3.85,3.85,0,0,1-3.85-3.85V54.5h1.283a3.85,3.85,0,0,1,3.85,3.85Zm-7.7,0H48.683a3.85,3.85,0,0,1-3.85-3.85V54.5h1.283a3.85,3.85,0,0,1,3.85,3.85Zm28.233-7.7a1.283,1.283,0,0,1,1.283,1.283v3.85H76.917v-3.85A1.283,1.283,0,0,1,78.2,51.933Zm3.85,1.283a1.283,1.283,0,0,1,2.567,0v3.85H82.05Zm5.133,0a1.283,1.283,0,0,1,2.567,0v3.85H87.183Zm-7.7,6.417H93.6v7.7H73.067v-7.7Zm19.25,7.7H96.167V57.067h-3.85v-3.85a3.85,3.85,0,0,0-2.2-3.465l.85-2.547-2.438-.812L87.493,49.5a3.827,3.827,0,0,0-1.593.864,3.853,3.853,0,0,0-.915-.615l.85-2.547L83.4,46.393l-1.037,3.112a3.827,3.827,0,0,0-1.593.862,3.853,3.853,0,0,0-.915-.615l.85-2.547-2.438-.812-1.037,3.112a3.85,3.85,0,0,0-2.876,3.711v3.85H70.5V67.333H65.367V66.05a6.427,6.427,0,0,0-5.146-6.288c0-.044.013-.085.013-.128V58.35a6.424,6.424,0,0,0-6.417-6.417H52.533A2.567,2.567,0,0,0,50.2,53.443a6.355,6.355,0,0,0-4.084-1.509H44.833A2.567,2.567,0,0,0,42.267,54.5v1.283a6.354,6.354,0,0,0,1.319,3.85H42.267A2.567,2.567,0,0,0,39.7,62.2v1.283a6.354,6.354,0,0,0,1.317,3.85H37.133v-23.1a5.1,5.1,0,0,0,3.85-1.774,5.064,5.064,0,0,0,7.7,0,5.064,5.064,0,0,0,7.7,0,5.064,5.064,0,0,0,7.7,0,5.064,5.064,0,0,0,7.7,0,5.064,5.064,0,0,0,7.7,0,5.064,5.064,0,0,0,7.7,0,5.064,5.064,0,0,0,7.7,0,5.1,5.1,0,0,0,3.85,1.774ZM101.3,39.1a2.567,2.567,0,1,1-5.133,0V36.533H101.3Zm-5.133-5.133h-.316l-4.4-15.4H94.09l7.21,14.42v.98Z"/><rect class="b" width="15" height="3" transform="translate(76 62)"/><path class="b" d="M217.291,364.159l-1.815-1.815-2.952,2.952a5.193,5.193,0,0,0-2.673-.761h-.411a5.262,5.262,0,0,0-4.272,2.2l-2.035,2.85a8.9,8.9,0,0,0-7.283-3.765h-1.283A2.567,2.567,0,0,0,192,368.385v1.283a8.994,8.994,0,0,0,8.983,8.983h1.283a1.579,1.579,0,0,0,.338-.036,3.229,3.229,0,0,0,.322.036h.164a3.235,3.235,0,0,0,1.444-.341l7.664-3.832a5.22,5.22,0,0,0,2.9-4.694c0-.04-.01-.077-.012-.116h2.578V367.1h-3.319Zm-22.724,5.509v-1.283h1.283a6.382,6.382,0,0,1,5.961,4.055h0a6.374,6.374,0,0,1,.456,2.361l-.008,1.259-1.276.024A6.424,6.424,0,0,1,194.567,369.668Zm16.484,2.514-6.218,3.11v-.49a8.861,8.861,0,0,0-.089-1.186c-.012-.086-.023-.171-.037-.257a8.943,8.943,0,0,0-.257-1.138.08.08,0,0,0-.01-.047l2.823-3.95a2.7,2.7,0,0,1,2.177-1.122h.409a2.682,2.682,0,0,1,1.2,5.081Z" transform="translate(-134.333 -290.785)"/></g></svg>